<?xml version="1.0" encoding="UTF-8" standalone="no"?>
<!DOCTYPE svg PUBLIC "-//W3C//DTD SVG 1.1//EN" "http://www.w3.org/Graphics/SVG/1.1/DTD/svg11.dtd">
<svg width="100%" height="100%" viewBox="0 0 951 201" version="1.1" xmlns="http://www.w3.org/2000/svg" xmlns:xlink="http://www.w3.org/1999/xlink" xml:space="preserve" xmlns:serif="http://www.serif.com/" style="fill-rule:evenodd;clip-rule:evenodd;stroke-linejoin:round;stroke-miterlimit:2;">
    <g transform="matrix(1,0,0,1,-499.033,-138.28)">
        <g transform="matrix(10.8786,0,0,10.8786,-7905.04,-17524.3)">
            <g transform="matrix(12,0,0,12,792.769,1632.48)">
                <rect x="0.069" y="-0.74" width="0.14" height="0.74" style="fill:rgb(239,68,68);fill-rule:nonzero;"/>
            </g>
            <g transform="matrix(12,0,0,12,795.733,1632.48)">
                <path d="M0.033,-0.279C0.033,-0.335 0.044,-0.385 0.067,-0.428C0.089,-0.471 0.119,-0.505 0.158,-0.528C0.196,-0.551 0.239,-0.563 0.286,-0.563C0.327,-0.563 0.364,-0.555 0.395,-0.538C0.426,-0.521 0.45,-0.5 0.469,-0.475L0.469,-0.554L0.61,-0.554L0.61,-0L0.469,-0L0.469,-0.081C0.451,-0.055 0.426,-0.034 0.395,-0.017C0.363,0.001 0.326,0.009 0.285,0.009C0.238,0.009 0.196,-0.003 0.158,-0.027C0.119,-0.051 0.089,-0.085 0.067,-0.129C0.044,-0.172 0.033,-0.222 0.033,-0.279ZM0.469,-0.277C0.469,-0.311 0.462,-0.34 0.449,-0.365C0.436,-0.389 0.418,-0.408 0.395,-0.421C0.372,-0.434 0.348,-0.44 0.322,-0.44C0.296,-0.44 0.272,-0.434 0.25,-0.421C0.228,-0.408 0.21,-0.39 0.197,-0.366C0.183,-0.341 0.176,-0.312 0.176,-0.279C0.176,-0.246 0.183,-0.217 0.197,-0.192C0.21,-0.167 0.228,-0.147 0.251,-0.134C0.273,-0.121 0.297,-0.114 0.322,-0.114C0.348,-0.114 0.372,-0.121 0.395,-0.134C0.418,-0.147 0.436,-0.165 0.449,-0.19C0.462,-0.214 0.469,-0.243 0.469,-0.277Z" style="fill:rgb(239,68,68);fill-rule:nonzero;"/>
            </g>
            <g transform="matrix(12,0,0,12,803.497,1632.48)">
                <path d="M0.209,-0.468C0.227,-0.497 0.251,-0.52 0.28,-0.537C0.309,-0.554 0.342,-0.562 0.379,-0.562L0.379,-0.415L0.342,-0.415C0.298,-0.415 0.265,-0.405 0.243,-0.384C0.22,-0.363 0.209,-0.327 0.209,-0.276L0.209,-0L0.069,-0L0.069,-0.554L0.209,-0.554L0.209,-0.468Z" style="fill:rgb(239,68,68);fill-rule:nonzero;"/>
            </g>
            <g transform="matrix(12,0,0,12,807.973,1632.48)">
                <path d="M0.033,-0.279C0.033,-0.335 0.044,-0.385 0.067,-0.428C0.089,-0.471 0.119,-0.505 0.158,-0.528C0.196,-0.551 0.239,-0.563 0.286,-0.563C0.327,-0.563 0.364,-0.555 0.395,-0.538C0.426,-0.521 0.45,-0.5 0.469,-0.475L0.469,-0.554L0.61,-0.554L0.61,-0L0.469,-0L0.469,-0.081C0.451,-0.055 0.426,-0.034 0.395,-0.017C0.363,0.001 0.326,0.009 0.285,0.009C0.238,0.009 0.196,-0.003 0.158,-0.027C0.119,-0.051 0.089,-0.085 0.067,-0.129C0.044,-0.172 0.033,-0.222 0.033,-0.279ZM0.469,-0.277C0.469,-0.311 0.462,-0.34 0.449,-0.365C0.436,-0.389 0.418,-0.408 0.395,-0.421C0.372,-0.434 0.348,-0.44 0.322,-0.44C0.296,-0.44 0.272,-0.434 0.25,-0.421C0.228,-0.408 0.21,-0.39 0.197,-0.366C0.183,-0.341 0.176,-0.312 0.176,-0.279C0.176,-0.246 0.183,-0.217 0.197,-0.192C0.21,-0.167 0.228,-0.147 0.251,-0.134C0.273,-0.121 0.297,-0.114 0.322,-0.114C0.348,-0.114 0.372,-0.121 0.395,-0.134C0.418,-0.147 0.436,-0.165 0.449,-0.19C0.462,-0.214 0.469,-0.243 0.469,-0.277Z" style="fill:rgb(239,68,68);fill-rule:nonzero;"/>
            </g>
            <g transform="matrix(12,0,0,12,815.737,1632.48)">
                <path d="M0.3,-0.129L0.44,-0.554L0.589,-0.554L0.384,-0L0.214,-0L0.01,-0.554L0.16,-0.554L0.3,-0.129Z" style="fill:rgb(239,68,68);fill-rule:nonzero;"/>
            </g>
            <g transform="matrix(12,0,0,12,822.553,1632.48)">
                <path d="M0.584,-0.289C0.584,-0.269 0.583,-0.251 0.58,-0.235L0.175,-0.235C0.178,-0.195 0.192,-0.164 0.217,-0.141C0.242,-0.118 0.272,-0.107 0.308,-0.107C0.36,-0.107 0.397,-0.129 0.419,-0.174L0.57,-0.174C0.554,-0.121 0.523,-0.077 0.478,-0.043C0.433,-0.008 0.377,0.009 0.311,0.009C0.258,0.009 0.21,-0.003 0.168,-0.027C0.125,-0.05 0.092,-0.084 0.069,-0.127C0.045,-0.17 0.033,-0.22 0.033,-0.277C0.033,-0.334 0.045,-0.385 0.068,-0.428C0.091,-0.471 0.124,-0.505 0.166,-0.528C0.208,-0.551 0.256,-0.563 0.311,-0.563C0.364,-0.563 0.411,-0.552 0.453,-0.529C0.494,-0.506 0.527,-0.474 0.55,-0.433C0.572,-0.391 0.584,-0.343 0.584,-0.289ZM0.439,-0.329C0.438,-0.365 0.425,-0.394 0.4,-0.416C0.375,-0.437 0.344,-0.448 0.307,-0.448C0.272,-0.448 0.243,-0.438 0.22,-0.417C0.196,-0.396 0.181,-0.366 0.176,-0.329L0.439,-0.329Z" style="fill:rgb(239,68,68);fill-rule:nonzero;"/>
            </g>
            <g transform="matrix(12,0,0,12,829.585,1632.48)">
                <rect x="0.069" y="-0.74" width="0.14" height="0.74" style="fill:rgb(239,68,68);fill-rule:nonzero;"/>
            </g>
        </g>
        <g transform="matrix(1,0,0,1,0,3.45695)">
            <g id="final-1" serif:id="final 1" transform="matrix(1.53781,0,0,1.53781,-2350.98,-3343.41)">
                <g transform="matrix(1.01587,0,0,1.03169,-223.658,1413.44)">
                    <circle cx="2104.8" cy="889.351" r="50.764" style="fill:rgb(62,74,92);"/>
                </g>
                <g transform="matrix(1,0,0,1,-181.894,1743.53)">
                    <path d="M2096.44,526.186C2130.25,526.186 2157.7,553.633 2157.7,587.441C2157.7,621.248 2130.25,648.695 2096.44,648.695C2062.64,648.695 2035.19,621.248 2035.19,587.441C2035.19,553.633 2062.64,526.186 2096.44,526.186ZM2096.44,543.95C2120.45,543.95 2139.93,563.438 2139.93,587.441C2139.93,611.444 2120.45,630.931 2096.44,630.931C2072.44,630.931 2052.95,611.444 2052.95,587.441C2052.95,563.438 2072.44,543.95 2096.44,543.95Z" style="fill:rgb(239,68,68);"/>
                </g>
                <g transform="matrix(1,0,0,1,-200.744,1743.53)">
                    <path d="M2176.5,589.923C2175.19,622.582 2148.27,648.695 2115.29,648.695C2082.32,648.695 2055.39,622.582 2054.09,589.923L2071.87,589.923C2073.16,612.773 2092.12,630.931 2115.29,630.931C2138.46,630.931 2157.43,612.773 2158.71,589.923L2176.5,589.923Z" style="fill:rgb(239,68,68);"/>
                </g>
            </g>
            <g transform="matrix(0.85364,0,0,0.85364,72.1258,16.317)">
                <path d="M582.985,224.437L582.985,236.783L570.917,236.783L570.917,290.05L582.985,290.05L582.985,302.395L556.49,302.395L556.49,224.437L582.985,224.437Z" style="fill:white;fill-rule:nonzero;"/>
                <path d="M664.411,302.395L637.916,302.395L637.916,290.05L649.985,290.05L649.985,236.783L637.916,236.783L637.916,224.437L664.411,224.437L664.411,302.395Z" style="fill:white;fill-rule:nonzero;"/>
            </g>
            <g transform="matrix(5.77981,0,0,5.77981,-2012.97,-991.433)">
                <g transform="matrix(12,0,0,12,447.147,217.462)">
                    <path d="M0.569,-0.273L0.395,-0.273L0.395,-0.095L0.233,-0.095L0.233,-0.273L0.059,-0.273L0.059,-0.426L0.233,-0.426L0.233,-0.605L0.395,-0.605L0.395,-0.426L0.569,-0.426L0.569,-0.273Z" style="fill:rgb(239,68,68);fill-rule:nonzero;"/>
                </g>
            </g>
        </g>
        <g transform="matrix(4.39434,0,0,4.39434,-3240.26,-338.855)">
            <g>
                <g transform="matrix(27.5322,0,0,27.5322,902.012,153.156)">
                    <path d="M0.281,0.009C0.236,0.009 0.195,0.001 0.159,-0.016C0.123,-0.032 0.094,-0.054 0.074,-0.082C0.053,-0.11 0.041,-0.141 0.039,-0.175L0.18,-0.175C0.183,-0.154 0.193,-0.136 0.212,-0.122C0.23,-0.108 0.253,-0.101 0.28,-0.101C0.307,-0.101 0.328,-0.106 0.343,-0.117C0.358,-0.128 0.365,-0.141 0.365,-0.158C0.365,-0.176 0.356,-0.19 0.338,-0.199C0.319,-0.208 0.29,-0.217 0.25,-0.228C0.209,-0.238 0.175,-0.248 0.149,-0.259C0.122,-0.27 0.099,-0.286 0.081,-0.308C0.062,-0.33 0.052,-0.36 0.052,-0.397C0.052,-0.428 0.061,-0.456 0.079,-0.481C0.096,-0.506 0.122,-0.526 0.155,-0.541C0.188,-0.556 0.226,-0.563 0.271,-0.563C0.337,-0.563 0.39,-0.547 0.429,-0.514C0.468,-0.481 0.49,-0.436 0.494,-0.38L0.36,-0.38C0.358,-0.402 0.349,-0.42 0.333,-0.433C0.316,-0.446 0.294,-0.452 0.267,-0.452C0.242,-0.452 0.222,-0.447 0.209,-0.438C0.195,-0.429 0.188,-0.416 0.188,-0.399C0.188,-0.38 0.197,-0.366 0.216,-0.357C0.235,-0.347 0.264,-0.337 0.303,-0.327C0.343,-0.317 0.376,-0.307 0.402,-0.296C0.428,-0.285 0.451,-0.269 0.47,-0.247C0.489,-0.224 0.498,-0.195 0.499,-0.158C0.499,-0.126 0.49,-0.097 0.473,-0.072C0.455,-0.047 0.43,-0.027 0.397,-0.013C0.364,0.002 0.325,0.009 0.281,0.009Z" style="fill:rgb(62,74,92);fill-rule:nonzero;"/>
                </g>
                <g transform="matrix(27.5322,0,0,27.5322,916.164,153.156)">
                    <path d="M0.381,-0.562C0.423,-0.562 0.46,-0.553 0.493,-0.535C0.526,-0.516 0.551,-0.489 0.57,-0.454C0.588,-0.418 0.597,-0.375 0.597,-0.325L0.597,-0L0.457,-0L0.457,-0.306C0.457,-0.35 0.446,-0.384 0.424,-0.408C0.402,-0.431 0.372,-0.443 0.334,-0.443C0.295,-0.443 0.265,-0.431 0.243,-0.408C0.22,-0.384 0.209,-0.35 0.209,-0.306L0.209,-0L0.069,-0L0.069,-0.74L0.209,-0.74L0.209,-0.485C0.227,-0.509 0.251,-0.528 0.281,-0.542C0.311,-0.555 0.344,-0.562 0.381,-0.562Z" style="fill:rgb(62,74,92);fill-rule:nonzero;"/>
                </g>
                <g transform="matrix(27.5322,0,0,27.5322,933.509,153.156)">
                    <path d="M0.315,0.009C0.262,0.009 0.214,-0.003 0.171,-0.027C0.128,-0.05 0.095,-0.084 0.071,-0.127C0.046,-0.17 0.034,-0.22 0.034,-0.277C0.034,-0.334 0.047,-0.384 0.072,-0.427C0.096,-0.47 0.131,-0.504 0.174,-0.528C0.217,-0.551 0.266,-0.563 0.319,-0.563C0.372,-0.563 0.421,-0.551 0.464,-0.528C0.507,-0.504 0.542,-0.47 0.567,-0.427C0.592,-0.384 0.604,-0.334 0.604,-0.277C0.604,-0.22 0.591,-0.17 0.566,-0.127C0.54,-0.084 0.505,-0.05 0.462,-0.027C0.418,-0.003 0.369,0.009 0.315,0.009ZM0.315,-0.113C0.34,-0.113 0.364,-0.119 0.387,-0.132C0.409,-0.144 0.427,-0.162 0.44,-0.187C0.453,-0.212 0.46,-0.242 0.46,-0.277C0.46,-0.33 0.446,-0.37 0.419,-0.399C0.391,-0.427 0.357,-0.441 0.317,-0.441C0.277,-0.441 0.244,-0.427 0.217,-0.399C0.19,-0.37 0.176,-0.33 0.176,-0.277C0.176,-0.224 0.189,-0.184 0.216,-0.156C0.242,-0.127 0.275,-0.113 0.315,-0.113Z" style="fill:rgb(62,74,92);fill-rule:nonzero;"/>
                </g>
                <g transform="matrix(27.5322,0,0,27.5322,950.221,153.156)">
                    <path d="M0.209,-0.468C0.227,-0.497 0.251,-0.52 0.28,-0.537C0.309,-0.554 0.342,-0.562 0.379,-0.562L0.379,-0.415L0.342,-0.415C0.298,-0.415 0.265,-0.405 0.243,-0.384C0.22,-0.363 0.209,-0.327 0.209,-0.276L0.209,-0L0.069,-0L0.069,-0.554L0.209,-0.554L0.209,-0.468Z" style="fill:rgb(62,74,92);fill-rule:nonzero;"/>
                </g>
                <g transform="matrix(27.5322,0,0,27.5322,960.491,153.156)">
                    <path d="M0.232,-0.439L0.232,-0.171C0.232,-0.152 0.237,-0.139 0.246,-0.131C0.255,-0.122 0.27,-0.118 0.291,-0.118L0.356,-0.118L0.356,-0L0.268,-0C0.15,-0 0.091,-0.057 0.091,-0.172L0.091,-0.439L0.025,-0.439L0.025,-0.554L0.091,-0.554L0.091,-0.691L0.232,-0.691L0.232,-0.554L0.356,-0.554L0.356,-0.439L0.232,-0.439Z" style="fill:rgb(62,74,92);fill-rule:nonzero;"/>
                </g>
                <g transform="matrix(27.5322,0,0,27.5322,970.32,153.156)">
                    <path d="M0.033,-0.277C0.033,-0.334 0.045,-0.385 0.068,-0.428C0.091,-0.47 0.124,-0.504 0.165,-0.528C0.206,-0.551 0.254,-0.563 0.307,-0.563C0.376,-0.563 0.433,-0.546 0.478,-0.512C0.523,-0.477 0.553,-0.429 0.568,-0.367L0.417,-0.367C0.409,-0.391 0.396,-0.41 0.377,-0.424C0.358,-0.437 0.334,-0.444 0.306,-0.444C0.266,-0.444 0.234,-0.43 0.211,-0.401C0.188,-0.372 0.176,-0.33 0.176,-0.277C0.176,-0.224 0.188,-0.184 0.211,-0.155C0.234,-0.126 0.266,-0.111 0.306,-0.111C0.363,-0.111 0.4,-0.136 0.417,-0.187L0.568,-0.187C0.553,-0.127 0.522,-0.079 0.477,-0.044C0.432,-0.009 0.375,0.009 0.307,0.009C0.254,0.009 0.206,-0.003 0.165,-0.027C0.124,-0.05 0.091,-0.084 0.068,-0.127C0.045,-0.169 0.033,-0.22 0.033,-0.277Z" style="fill:rgb(62,74,92);fill-rule:nonzero;"/>
                </g>
                <g transform="matrix(27.5322,0,0,27.5322,986.04,153.156)">
                    <path d="M0.315,0.009C0.262,0.009 0.214,-0.003 0.171,-0.027C0.128,-0.05 0.095,-0.084 0.071,-0.127C0.046,-0.17 0.034,-0.22 0.034,-0.277C0.034,-0.334 0.047,-0.384 0.072,-0.427C0.096,-0.47 0.131,-0.504 0.174,-0.528C0.217,-0.551 0.266,-0.563 0.319,-0.563C0.372,-0.563 0.421,-0.551 0.464,-0.528C0.507,-0.504 0.542,-0.47 0.567,-0.427C0.592,-0.384 0.604,-0.334 0.604,-0.277C0.604,-0.22 0.591,-0.17 0.566,-0.127C0.54,-0.084 0.505,-0.05 0.462,-0.027C0.418,-0.003 0.369,0.009 0.315,0.009ZM0.315,-0.113C0.34,-0.113 0.364,-0.119 0.387,-0.132C0.409,-0.144 0.427,-0.162 0.44,-0.187C0.453,-0.212 0.46,-0.242 0.46,-0.277C0.46,-0.33 0.446,-0.37 0.419,-0.399C0.391,-0.427 0.357,-0.441 0.317,-0.441C0.277,-0.441 0.244,-0.427 0.217,-0.399C0.19,-0.37 0.176,-0.33 0.176,-0.277C0.176,-0.224 0.189,-0.184 0.216,-0.156C0.242,-0.127 0.275,-0.113 0.315,-0.113Z" style="fill:rgb(62,74,92);fill-rule:nonzero;"/>
                </g>
                <g transform="matrix(27.5322,0,0,27.5322,1002.75,153.156)">
                    <path d="M0.033,-0.279C0.033,-0.335 0.044,-0.385 0.067,-0.428C0.089,-0.471 0.119,-0.505 0.158,-0.528C0.197,-0.551 0.24,-0.563 0.287,-0.563C0.323,-0.563 0.357,-0.555 0.39,-0.54C0.423,-0.524 0.449,-0.503 0.468,-0.477L0.468,-0.74L0.61,-0.74L0.61,-0L0.468,-0L0.468,-0.082C0.451,-0.055 0.426,-0.033 0.395,-0.016C0.364,0.001 0.327,0.009 0.286,0.009C0.239,0.009 0.197,-0.003 0.158,-0.027C0.119,-0.051 0.089,-0.085 0.067,-0.129C0.044,-0.172 0.033,-0.222 0.033,-0.279ZM0.469,-0.277C0.469,-0.311 0.462,-0.34 0.449,-0.365C0.436,-0.389 0.418,-0.408 0.395,-0.421C0.372,-0.434 0.348,-0.44 0.322,-0.44C0.296,-0.44 0.272,-0.434 0.25,-0.421C0.228,-0.408 0.21,-0.39 0.197,-0.366C0.183,-0.341 0.176,-0.312 0.176,-0.279C0.176,-0.246 0.183,-0.217 0.197,-0.192C0.21,-0.167 0.228,-0.147 0.251,-0.134C0.273,-0.121 0.297,-0.114 0.322,-0.114C0.348,-0.114 0.372,-0.121 0.395,-0.134C0.418,-0.147 0.436,-0.165 0.449,-0.19C0.462,-0.214 0.469,-0.243 0.469,-0.277Z" style="fill:rgb(62,74,92);fill-rule:nonzero;"/>
                </g>
                <g transform="matrix(27.5322,0,0,27.5322,1020.57,153.156)">
                    <path d="M0.584,-0.289C0.584,-0.269 0.583,-0.251 0.58,-0.235L0.175,-0.235C0.178,-0.195 0.192,-0.164 0.217,-0.141C0.242,-0.118 0.272,-0.107 0.308,-0.107C0.36,-0.107 0.397,-0.129 0.419,-0.174L0.57,-0.174C0.554,-0.121 0.523,-0.077 0.478,-0.043C0.433,-0.008 0.377,0.009 0.311,0.009C0.258,0.009 0.21,-0.003 0.168,-0.027C0.125,-0.05 0.092,-0.084 0.069,-0.127C0.045,-0.17 0.033,-0.22 0.033,-0.277C0.033,-0.334 0.045,-0.385 0.068,-0.428C0.091,-0.471 0.124,-0.505 0.166,-0.528C0.208,-0.551 0.256,-0.563 0.311,-0.563C0.364,-0.563 0.411,-0.552 0.453,-0.529C0.494,-0.506 0.527,-0.474 0.55,-0.433C0.572,-0.391 0.584,-0.343 0.584,-0.289ZM0.439,-0.329C0.438,-0.365 0.425,-0.394 0.4,-0.416C0.375,-0.437 0.344,-0.448 0.307,-0.448C0.272,-0.448 0.243,-0.438 0.22,-0.417C0.196,-0.396 0.181,-0.366 0.176,-0.329L0.439,-0.329Z" style="fill:rgb(62,74,92);fill-rule:nonzero;"/>
                </g>
                <g transform="matrix(27.5322,0,0,27.5322,1036.7,153.156)">
                    <path d="M0.281,0.009C0.236,0.009 0.195,0.001 0.159,-0.016C0.123,-0.032 0.094,-0.054 0.074,-0.082C0.053,-0.11 0.041,-0.141 0.039,-0.175L0.18,-0.175C0.183,-0.154 0.193,-0.136 0.212,-0.122C0.23,-0.108 0.253,-0.101 0.28,-0.101C0.307,-0.101 0.328,-0.106 0.343,-0.117C0.358,-0.128 0.365,-0.141 0.365,-0.158C0.365,-0.176 0.356,-0.19 0.338,-0.199C0.319,-0.208 0.29,-0.217 0.25,-0.228C0.209,-0.238 0.175,-0.248 0.149,-0.259C0.122,-0.27 0.099,-0.286 0.081,-0.308C0.062,-0.33 0.052,-0.36 0.052,-0.397C0.052,-0.428 0.061,-0.456 0.079,-0.481C0.096,-0.506 0.122,-0.526 0.155,-0.541C0.188,-0.556 0.226,-0.563 0.271,-0.563C0.337,-0.563 0.39,-0.547 0.429,-0.514C0.468,-0.481 0.49,-0.436 0.494,-0.38L0.36,-0.38C0.358,-0.402 0.349,-0.42 0.333,-0.433C0.316,-0.446 0.294,-0.452 0.267,-0.452C0.242,-0.452 0.222,-0.447 0.209,-0.438C0.195,-0.429 0.188,-0.416 0.188,-0.399C0.188,-0.38 0.197,-0.366 0.216,-0.357C0.235,-0.347 0.264,-0.337 0.303,-0.327C0.343,-0.317 0.376,-0.307 0.402,-0.296C0.428,-0.285 0.451,-0.269 0.47,-0.247C0.489,-0.224 0.498,-0.195 0.499,-0.158C0.499,-0.126 0.49,-0.097 0.473,-0.072C0.455,-0.047 0.43,-0.027 0.397,-0.013C0.364,0.002 0.325,0.009 0.281,0.009Z" style="fill:rgb(62,74,92);fill-rule:nonzero;"/>
                </g>
                <g transform="matrix(27.5322,0,0,27.5322,1050.85,153.156)">
                    <path d="M0.592,-0.295L0.403,-0.295L0.403,-0.101L0.271,-0.101L0.271,-0.295L0.082,-0.295L0.082,-0.417L0.271,-0.417L0.271,-0.611L0.403,-0.611L0.403,-0.417L0.592,-0.417L0.592,-0.295Z" style="fill:rgb(62,74,92);fill-rule:nonzero;"/>
                </g>
            </g>
        </g>
    </g>
</svg>
