<?xml version="1.0" encoding="UTF-8" standalone="no"?>
<!DOCTYPE svg PUBLIC "-//W3C//DTD SVG 1.1//EN" "http://www.w3.org/Graphics/SVG/1.1/DTD/svg11.dtd">
<svg width="100%" height="100%" viewBox="0 0 1920 1080" version="1.1" xmlns="http://www.w3.org/2000/svg" xmlns:xlink="http://www.w3.org/1999/xlink" xml:space="preserve" xmlns:serif="http://www.serif.com/" style="fill-rule:evenodd;clip-rule:evenodd;stroke-linejoin:round;stroke-miterlimit:2;">
    <rect x="0" y="0" width="1920" height="1080" style="fill:rgb(235,235,235);"/>
    <g transform="matrix(0.63622,0,0,0.63622,1501.97,429.887)">
        <g transform="matrix(1,0,0,1,-361.071,-309.021)">
            <clipPath id="_clip1">
                <rect x="0" y="0" width="722.143" height="618.042"/>
            </clipPath>
            <g clip-path="url(#_clip1)">
                <g transform="matrix(5.34921,0,0,5.34921,-1638.27,-1667.12)">
                    <g>
                        <g>
                            <g transform="matrix(0.87274,-0.48819,0.87274,0.48819,0,0)">
                                <rect x="-180.975" y="535.708" width="73.944" height="73.944"/>
                            </g>
                            <g transform="matrix(0,-1,0.87274,-0.48819,0,0)">
                                <rect x="-637.272" y="431.131" width="36.36" height="74.478"/>
                            </g>
                            <g transform="matrix(0,-1,-0.87274,-0.48819,0,0)">
                                <rect x="-219.52" y="-425.402" width="36.36" height="74.478"/>
                            </g>
                            <g transform="matrix(1.2439,0,0,-0.69582,305.94,273.719)">
                                <path d="M40.714,-106.428C40.714,-98.341 34.158,-91.785 26.071,-91.785C17.984,-91.785 11.429,-98.341 11.429,-106.428C11.429,-114.515 17.984,-121.07 26.071,-121.07C34.158,-121.07 40.714,-114.515 40.714,-106.428Z" style="fill:white;"/>
                            </g>
                            <g transform="matrix(1.2439,0,0,-0.69582,305.94,266.401)">
                                <path d="M40.714,-106.428C40.714,-98.341 34.158,-91.785 26.071,-91.785C17.984,-91.785 11.429,-98.341 11.429,-106.428C11.429,-114.515 17.984,-121.07 26.071,-121.07C34.158,-121.07 40.714,-114.515 40.714,-106.428Z"/>
                            </g>
                            <g transform="matrix(1.2439,0,0,-0.69582,339.905,291.471)">
                                <path d="M40.714,-106.428C40.714,-98.395 34.104,-91.785 26.071,-91.785C18.039,-91.785 11.429,-98.395 11.429,-106.428C11.429,-114.46 18.039,-121.07 26.071,-121.07C34.104,-121.07 40.714,-114.46 40.714,-106.428L40.714,-106.428Z" style="fill:white;"/>
                            </g>
                            <g transform="matrix(1.2439,0,0,-0.69582,339.905,284.153)">
                                <path d="M40.714,-106.428C40.714,-98.395 34.104,-91.785 26.071,-91.785C18.039,-91.785 11.429,-98.395 11.429,-106.428C11.429,-114.46 18.039,-121.07 26.071,-121.07C34.104,-121.07 40.714,-114.46 40.714,-106.428L40.714,-106.428Z"/>
                            </g>
                            <g transform="matrix(1.2439,0,0,-0.69582,374.905,273.719)">
                                <path d="M40.714,-106.428C40.714,-98.341 34.158,-91.785 26.071,-91.785C17.984,-91.785 11.429,-98.341 11.429,-106.428C11.429,-114.515 17.984,-121.07 26.071,-121.07C34.158,-121.07 40.714,-114.515 40.714,-106.428Z" style="fill:white;"/>
                            </g>
                            <g transform="matrix(1.2439,0,0,-0.69582,374.905,266.401)">
                                <path d="M40.714,-106.428C40.714,-98.341 34.158,-91.785 26.071,-91.785C17.984,-91.785 11.429,-98.341 11.429,-106.428C11.429,-114.515 17.984,-121.07 26.071,-121.07C34.158,-121.07 40.714,-114.515 40.714,-106.428Z"/>
                            </g>
                            <g transform="matrix(1.2439,0,0,-0.69582,339.905,255.111)">
                                <path d="M40.714,-106.428C40.714,-98.395 34.104,-91.785 26.071,-91.785C18.039,-91.785 11.429,-98.395 11.429,-106.428C11.429,-114.46 18.039,-121.07 26.071,-121.07C34.104,-121.07 40.714,-114.46 40.714,-106.428L40.714,-106.428Z" style="fill:white;"/>
                            </g>
                            <g transform="matrix(1.2439,0,0,-0.69582,339.905,247.793)">
                                <path d="M40.714,-106.428C40.714,-98.395 34.104,-91.785 26.071,-91.785C18.039,-91.785 11.429,-98.395 11.429,-106.428C11.429,-114.46 18.039,-121.07 26.071,-121.07C34.104,-121.07 40.714,-114.46 40.714,-106.428L40.714,-106.428Z"/>
                            </g>
                        </g>
                    </g>
                </g>
            </g>
        </g>
    </g>
    <g transform="matrix(1.4153,0,0,1.4153,-861.254,-165.305)">
        <g transform="matrix(128,0,0,128,726.317,399.484)">
            <path d="M0.076,-0.714L0.201,-0.714L0.201,-0.108L0.564,-0.108L0.564,-0L0.076,-0L0.076,-0.714Z" style="fill-rule:nonzero;"/>
        </g>
        <g transform="matrix(128,0,0,128,799.789,399.484)">
            <path d="M0.493,-0.115C0.493,-0.101 0.495,-0.091 0.499,-0.085C0.502,-0.079 0.509,-0.076 0.52,-0.076L0.532,-0.076C0.537,-0.076 0.542,-0.077 0.548,-0.078L0.548,0.001C0.544,0.002 0.539,0.004 0.533,0.006C0.526,0.007 0.52,0.009 0.513,0.01C0.506,0.011 0.5,0.012 0.493,0.013C0.486,0.014 0.481,0.014 0.476,0.014C0.453,0.014 0.433,0.009 0.418,-0C0.403,-0.009 0.393,-0.026 0.388,-0.049C0.365,-0.027 0.337,-0.011 0.305,-0.001C0.272,0.009 0.24,0.014 0.209,0.014C0.186,0.014 0.163,0.011 0.142,0.005C0.121,-0.002 0.102,-0.011 0.086,-0.024C0.069,-0.036 0.056,-0.052 0.047,-0.071C0.037,-0.09 0.032,-0.112 0.032,-0.137C0.032,-0.169 0.038,-0.195 0.05,-0.215C0.061,-0.235 0.077,-0.251 0.096,-0.262C0.115,-0.273 0.136,-0.282 0.16,-0.287C0.183,-0.292 0.207,-0.295 0.231,-0.298C0.252,-0.302 0.271,-0.305 0.29,-0.307C0.309,-0.308 0.325,-0.311 0.34,-0.315C0.354,-0.319 0.365,-0.325 0.374,-0.334C0.382,-0.342 0.386,-0.354 0.386,-0.371C0.386,-0.386 0.383,-0.398 0.376,-0.407C0.369,-0.416 0.36,-0.424 0.35,-0.429C0.339,-0.434 0.328,-0.437 0.315,-0.439C0.302,-0.44 0.29,-0.441 0.279,-0.441C0.247,-0.441 0.221,-0.434 0.2,-0.421C0.179,-0.408 0.168,-0.387 0.165,-0.359L0.051,-0.359C0.053,-0.392 0.061,-0.42 0.075,-0.442C0.089,-0.464 0.107,-0.482 0.129,-0.495C0.15,-0.508 0.175,-0.518 0.202,-0.523C0.229,-0.528 0.257,-0.531 0.286,-0.531C0.311,-0.531 0.336,-0.528 0.361,-0.523C0.386,-0.518 0.408,-0.509 0.428,-0.497C0.447,-0.485 0.463,-0.47 0.475,-0.451C0.487,-0.432 0.493,-0.408 0.493,-0.381L0.493,-0.115ZM0.379,-0.259C0.362,-0.248 0.34,-0.241 0.315,-0.239C0.29,-0.236 0.264,-0.233 0.239,-0.228C0.227,-0.226 0.215,-0.223 0.204,-0.22C0.193,-0.216 0.183,-0.211 0.174,-0.205C0.165,-0.198 0.159,-0.19 0.154,-0.18C0.149,-0.169 0.146,-0.157 0.146,-0.142C0.146,-0.129 0.15,-0.119 0.157,-0.11C0.164,-0.101 0.173,-0.094 0.184,-0.09C0.194,-0.085 0.205,-0.081 0.218,-0.079C0.23,-0.077 0.241,-0.076 0.251,-0.076C0.264,-0.076 0.277,-0.078 0.292,-0.081C0.307,-0.084 0.321,-0.09 0.334,-0.098C0.346,-0.106 0.357,-0.116 0.366,-0.129C0.375,-0.141 0.379,-0.156 0.379,-0.174L0.379,-0.259Z" style="fill-rule:nonzero;"/>
        </g>
        <g transform="matrix(128,0,0,128,870.957,399.484)">
            <path d="M0.06,-0.517L0.167,-0.517L0.167,-0.417L0.169,-0.417C0.172,-0.431 0.179,-0.445 0.189,-0.458C0.198,-0.471 0.21,-0.484 0.224,-0.495C0.237,-0.505 0.252,-0.514 0.269,-0.521C0.286,-0.528 0.303,-0.531 0.32,-0.531C0.333,-0.531 0.343,-0.531 0.348,-0.53C0.353,-0.529 0.358,-0.529 0.363,-0.528L0.363,-0.418C0.355,-0.419 0.347,-0.42 0.339,-0.422C0.33,-0.423 0.322,-0.423 0.314,-0.423C0.295,-0.423 0.277,-0.419 0.26,-0.412C0.243,-0.404 0.228,-0.393 0.215,-0.378C0.202,-0.363 0.192,-0.344 0.185,-0.322C0.178,-0.3 0.174,-0.275 0.174,-0.246L0.174,-0L0.06,-0L0.06,-0.517Z" style="fill-rule:nonzero;"/>
        </g>
        <g transform="matrix(128,0,0,128,916.013,399.484)">
            <path d="M0.493,-0.115C0.493,-0.101 0.495,-0.091 0.499,-0.085C0.502,-0.079 0.509,-0.076 0.52,-0.076L0.532,-0.076C0.537,-0.076 0.542,-0.077 0.548,-0.078L0.548,0.001C0.544,0.002 0.539,0.004 0.533,0.006C0.526,0.007 0.52,0.009 0.513,0.01C0.506,0.011 0.5,0.012 0.493,0.013C0.486,0.014 0.481,0.014 0.476,0.014C0.453,0.014 0.433,0.009 0.418,-0C0.403,-0.009 0.393,-0.026 0.388,-0.049C0.365,-0.027 0.337,-0.011 0.305,-0.001C0.272,0.009 0.24,0.014 0.209,0.014C0.186,0.014 0.163,0.011 0.142,0.005C0.121,-0.002 0.102,-0.011 0.086,-0.024C0.069,-0.036 0.056,-0.052 0.047,-0.071C0.037,-0.09 0.032,-0.112 0.032,-0.137C0.032,-0.169 0.038,-0.195 0.05,-0.215C0.061,-0.235 0.077,-0.251 0.096,-0.262C0.115,-0.273 0.136,-0.282 0.16,-0.287C0.183,-0.292 0.207,-0.295 0.231,-0.298C0.252,-0.302 0.271,-0.305 0.29,-0.307C0.309,-0.308 0.325,-0.311 0.34,-0.315C0.354,-0.319 0.365,-0.325 0.374,-0.334C0.382,-0.342 0.386,-0.354 0.386,-0.371C0.386,-0.386 0.383,-0.398 0.376,-0.407C0.369,-0.416 0.36,-0.424 0.35,-0.429C0.339,-0.434 0.328,-0.437 0.315,-0.439C0.302,-0.44 0.29,-0.441 0.279,-0.441C0.247,-0.441 0.221,-0.434 0.2,-0.421C0.179,-0.408 0.168,-0.387 0.165,-0.359L0.051,-0.359C0.053,-0.392 0.061,-0.42 0.075,-0.442C0.089,-0.464 0.107,-0.482 0.129,-0.495C0.15,-0.508 0.175,-0.518 0.202,-0.523C0.229,-0.528 0.257,-0.531 0.286,-0.531C0.311,-0.531 0.336,-0.528 0.361,-0.523C0.386,-0.518 0.408,-0.509 0.428,-0.497C0.447,-0.485 0.463,-0.47 0.475,-0.451C0.487,-0.432 0.493,-0.408 0.493,-0.381L0.493,-0.115ZM0.379,-0.259C0.362,-0.248 0.34,-0.241 0.315,-0.239C0.29,-0.236 0.264,-0.233 0.239,-0.228C0.227,-0.226 0.215,-0.223 0.204,-0.22C0.193,-0.216 0.183,-0.211 0.174,-0.205C0.165,-0.198 0.159,-0.19 0.154,-0.18C0.149,-0.169 0.146,-0.157 0.146,-0.142C0.146,-0.129 0.15,-0.119 0.157,-0.11C0.164,-0.101 0.173,-0.094 0.184,-0.09C0.194,-0.085 0.205,-0.081 0.218,-0.079C0.23,-0.077 0.241,-0.076 0.251,-0.076C0.264,-0.076 0.277,-0.078 0.292,-0.081C0.307,-0.084 0.321,-0.09 0.334,-0.098C0.346,-0.106 0.357,-0.116 0.366,-0.129C0.375,-0.141 0.379,-0.156 0.379,-0.174L0.379,-0.259Z" style="fill-rule:nonzero;"/>
        </g>
        <g transform="matrix(128,0,0,128,987.181,399.484)">
            <path d="M0.009,-0.517L0.133,-0.517L0.264,-0.12L0.266,-0.12L0.392,-0.517L0.51,-0.517L0.325,-0L0.197,-0L0.009,-0.517Z" style="fill-rule:nonzero;"/>
        </g>
        <g transform="matrix(128,0,0,128,1053.61,399.484)">
            <path d="M0.415,-0.304C0.414,-0.322 0.41,-0.339 0.404,-0.356C0.397,-0.373 0.389,-0.387 0.378,-0.4C0.367,-0.412 0.353,-0.422 0.338,-0.43C0.322,-0.437 0.304,-0.441 0.285,-0.441C0.265,-0.441 0.247,-0.438 0.231,-0.431C0.214,-0.424 0.2,-0.414 0.189,-0.402C0.177,-0.389 0.168,-0.375 0.161,-0.358C0.154,-0.341 0.15,-0.323 0.149,-0.304L0.415,-0.304ZM0.149,-0.229C0.149,-0.209 0.152,-0.19 0.158,-0.171C0.163,-0.152 0.172,-0.136 0.183,-0.122C0.194,-0.108 0.209,-0.097 0.226,-0.089C0.243,-0.08 0.264,-0.076 0.288,-0.076C0.321,-0.076 0.348,-0.083 0.369,-0.098C0.389,-0.112 0.404,-0.133 0.414,-0.162L0.522,-0.162C0.516,-0.134 0.506,-0.109 0.491,-0.087C0.476,-0.065 0.459,-0.047 0.438,-0.032C0.417,-0.017 0.394,-0.005 0.369,0.003C0.343,0.01 0.316,0.014 0.288,0.014C0.247,0.014 0.211,0.007 0.18,-0.006C0.149,-0.019 0.122,-0.038 0.101,-0.062C0.079,-0.086 0.063,-0.115 0.052,-0.148C0.041,-0.181 0.035,-0.218 0.035,-0.258C0.035,-0.295 0.041,-0.329 0.053,-0.363C0.064,-0.396 0.081,-0.425 0.103,-0.45C0.124,-0.474 0.15,-0.494 0.181,-0.509C0.212,-0.524 0.246,-0.531 0.285,-0.531C0.326,-0.531 0.362,-0.523 0.395,-0.506C0.427,-0.489 0.454,-0.466 0.475,-0.438C0.496,-0.41 0.512,-0.378 0.522,-0.342C0.531,-0.305 0.534,-0.268 0.529,-0.229L0.149,-0.229Z" style="fill-rule:nonzero;"/>
        </g>
        <g transform="matrix(128,0,0,128,1124.78,399.484)">
            <rect x="0.063" y="-0.714" width="0.114" height="0.714" style="fill-rule:nonzero;"/>
        </g>
        <g transform="matrix(128,0,0,128,726.317,530.94)">
            <path d="M0.531,-0.514C0.53,-0.551 0.523,-0.582 0.511,-0.607C0.498,-0.632 0.482,-0.652 0.462,-0.668C0.441,-0.683 0.417,-0.694 0.389,-0.701C0.361,-0.708 0.331,-0.711 0.299,-0.711C0.274,-0.711 0.249,-0.709 0.222,-0.704C0.195,-0.699 0.171,-0.69 0.15,-0.677C0.128,-0.664 0.11,-0.648 0.096,-0.627C0.082,-0.606 0.075,-0.579 0.075,-0.547C0.075,-0.515 0.082,-0.489 0.097,-0.47C0.111,-0.451 0.13,-0.435 0.153,-0.423C0.176,-0.411 0.202,-0.402 0.231,-0.395C0.26,-0.388 0.29,-0.381 0.321,-0.374C0.354,-0.365 0.386,-0.357 0.416,-0.349C0.445,-0.341 0.471,-0.33 0.493,-0.317C0.515,-0.304 0.533,-0.286 0.546,-0.264C0.559,-0.242 0.565,-0.212 0.565,-0.175C0.565,-0.141 0.558,-0.112 0.543,-0.088C0.528,-0.064 0.509,-0.044 0.485,-0.029C0.461,-0.013 0.434,-0.002 0.404,0.006C0.374,0.013 0.344,0.016 0.313,0.016C0.272,0.016 0.235,0.011 0.201,0.002C0.166,-0.007 0.137,-0.022 0.112,-0.043C0.087,-0.063 0.067,-0.089 0.054,-0.121C0.04,-0.153 0.033,-0.192 0.034,-0.237L0.054,-0.237C0.054,-0.194 0.06,-0.158 0.073,-0.129C0.086,-0.099 0.104,-0.075 0.127,-0.056C0.15,-0.037 0.177,-0.024 0.209,-0.016C0.24,-0.007 0.275,-0.003 0.313,-0.003C0.341,-0.003 0.369,-0.006 0.397,-0.013C0.424,-0.019 0.449,-0.029 0.471,-0.043C0.493,-0.057 0.511,-0.075 0.525,-0.097C0.538,-0.119 0.545,-0.145 0.545,-0.176C0.545,-0.212 0.537,-0.241 0.522,-0.262C0.506,-0.283 0.486,-0.299 0.462,-0.312C0.437,-0.324 0.41,-0.333 0.381,-0.34C0.351,-0.346 0.322,-0.352 0.295,-0.359C0.266,-0.366 0.238,-0.373 0.209,-0.38C0.18,-0.387 0.155,-0.398 0.132,-0.411C0.109,-0.424 0.09,-0.441 0.076,-0.463C0.062,-0.484 0.055,-0.512 0.055,-0.547C0.055,-0.582 0.062,-0.612 0.077,-0.636C0.092,-0.659 0.111,-0.678 0.134,-0.692C0.157,-0.706 0.184,-0.716 0.213,-0.722C0.241,-0.728 0.27,-0.731 0.299,-0.731C0.334,-0.731 0.367,-0.727 0.397,-0.72C0.426,-0.712 0.452,-0.7 0.475,-0.683C0.497,-0.666 0.515,-0.643 0.528,-0.616C0.541,-0.588 0.549,-0.554 0.551,-0.514L0.531,-0.514Z" style="fill-rule:nonzero;"/>
        </g>
        <g transform="matrix(128,0,0,128,804.525,530.94)">
            <path d="M0.055,-0.714L0.075,-0.714L0.075,-0.387L0.077,-0.387C0.082,-0.407 0.089,-0.425 0.1,-0.442C0.11,-0.459 0.123,-0.473 0.139,-0.486C0.154,-0.499 0.172,-0.509 0.193,-0.516C0.214,-0.523 0.237,-0.526 0.262,-0.526C0.289,-0.526 0.313,-0.522 0.336,-0.514C0.358,-0.506 0.377,-0.494 0.394,-0.479C0.41,-0.463 0.423,-0.444 0.432,-0.421C0.441,-0.398 0.445,-0.371 0.445,-0.341L0.445,-0L0.425,-0L0.425,-0.338C0.425,-0.368 0.421,-0.394 0.412,-0.415C0.403,-0.436 0.392,-0.453 0.377,-0.467C0.362,-0.48 0.344,-0.49 0.325,-0.497C0.305,-0.503 0.284,-0.506 0.262,-0.506C0.231,-0.506 0.204,-0.5 0.181,-0.489C0.158,-0.477 0.138,-0.461 0.123,-0.442C0.107,-0.422 0.095,-0.399 0.087,-0.373C0.079,-0.347 0.075,-0.32 0.075,-0.291L0.075,-0L0.055,-0L0.055,-0.714Z" style="fill-rule:nonzero;"/>
        </g>
        <g transform="matrix(128,0,0,128,868.525,530.94)">
            <path d="M0.048,-0.257C0.048,-0.224 0.053,-0.193 0.062,-0.163C0.071,-0.133 0.084,-0.107 0.102,-0.084C0.12,-0.061 0.142,-0.042 0.169,-0.029C0.195,-0.015 0.225,-0.008 0.26,-0.008C0.294,-0.008 0.324,-0.015 0.351,-0.029C0.377,-0.042 0.399,-0.061 0.417,-0.084C0.435,-0.107 0.449,-0.133 0.458,-0.163C0.467,-0.193 0.471,-0.224 0.471,-0.257C0.471,-0.289 0.467,-0.32 0.458,-0.35C0.449,-0.38 0.435,-0.407 0.417,-0.43C0.399,-0.453 0.377,-0.471 0.351,-0.485C0.324,-0.499 0.294,-0.506 0.26,-0.506C0.225,-0.506 0.195,-0.499 0.169,-0.485C0.142,-0.471 0.12,-0.453 0.102,-0.43C0.084,-0.407 0.071,-0.38 0.062,-0.35C0.053,-0.32 0.048,-0.289 0.048,-0.257ZM0.028,-0.257C0.028,-0.292 0.033,-0.326 0.043,-0.359C0.053,-0.391 0.068,-0.419 0.088,-0.444C0.107,-0.469 0.131,-0.489 0.16,-0.504C0.189,-0.519 0.222,-0.526 0.26,-0.526C0.297,-0.526 0.33,-0.519 0.359,-0.504C0.388,-0.489 0.412,-0.469 0.432,-0.444C0.451,-0.419 0.466,-0.391 0.476,-0.359C0.486,-0.326 0.491,-0.292 0.491,-0.257C0.491,-0.222 0.486,-0.188 0.476,-0.156C0.466,-0.123 0.451,-0.095 0.432,-0.07C0.412,-0.045 0.388,-0.026 0.359,-0.011C0.33,0.004 0.297,0.011 0.259,0.011C0.222,0.011 0.189,0.004 0.16,-0.011C0.131,-0.026 0.107,-0.045 0.088,-0.07C0.068,-0.095 0.053,-0.123 0.043,-0.156C0.033,-0.188 0.028,-0.222 0.028,-0.257Z" style="fill-rule:nonzero;"/>
        </g>
        <g transform="matrix(128,0,0,128,934.957,530.94)">
            <path d="M0.075,-0L0.055,-0L0.055,-0.514L0.075,-0.514L0.075,-0.387L0.077,-0.387C0.082,-0.406 0.089,-0.425 0.099,-0.442C0.109,-0.459 0.122,-0.473 0.139,-0.486C0.156,-0.499 0.176,-0.509 0.199,-0.516C0.222,-0.523 0.248,-0.527 0.279,-0.526L0.279,-0.506C0.244,-0.508 0.213,-0.503 0.188,-0.492C0.162,-0.48 0.141,-0.464 0.124,-0.444C0.107,-0.423 0.095,-0.4 0.087,-0.373C0.079,-0.346 0.075,-0.319 0.075,-0.291L0.075,-0Z" style="fill-rule:nonzero;"/>
        </g>
        <g transform="matrix(128,0,0,128,968.109,530.94)">
            <path d="M0.11,-0.494L0.11,-0.1C0.11,-0.081 0.112,-0.066 0.117,-0.055C0.121,-0.044 0.126,-0.036 0.133,-0.031C0.14,-0.026 0.147,-0.023 0.155,-0.022C0.163,-0.021 0.171,-0.02 0.179,-0.02C0.189,-0.02 0.198,-0.02 0.206,-0.021C0.214,-0.021 0.22,-0.022 0.223,-0.023L0.223,-0.003C0.217,-0.002 0.211,-0.002 0.206,-0.001C0.2,-0 0.189,0 0.174,-0C0.151,-0 0.131,-0.007 0.115,-0.021C0.098,-0.034 0.09,-0.059 0.09,-0.096L0.09,-0.494L-0.004,-0.494L-0.004,-0.514L0.09,-0.514L0.09,-0.676L0.11,-0.676L0.11,-0.514L0.226,-0.514L0.226,-0.494L0.11,-0.494Z" style="fill-rule:nonzero;"/>
        </g>
        <g transform="matrix(128,0,0,128,998.957,530.94)">
            <path d="M0.469,-0.175C0.466,-0.146 0.459,-0.121 0.448,-0.098C0.437,-0.075 0.422,-0.055 0.404,-0.039C0.385,-0.023 0.364,-0.011 0.34,-0.002C0.315,0.007 0.288,0.011 0.259,0.011C0.222,0.011 0.19,0.004 0.162,-0.01C0.133,-0.023 0.109,-0.042 0.09,-0.065C0.071,-0.088 0.056,-0.116 0.046,-0.147C0.036,-0.178 0.031,-0.211 0.031,-0.246C0.031,-0.283 0.036,-0.319 0.046,-0.353C0.055,-0.386 0.07,-0.416 0.09,-0.442C0.109,-0.467 0.134,-0.488 0.165,-0.503C0.195,-0.518 0.23,-0.526 0.271,-0.526C0.295,-0.526 0.318,-0.522 0.34,-0.515C0.362,-0.508 0.382,-0.497 0.399,-0.483C0.416,-0.469 0.431,-0.452 0.443,-0.431C0.454,-0.41 0.462,-0.385 0.465,-0.358L0.445,-0.358C0.441,-0.383 0.434,-0.405 0.423,-0.424C0.412,-0.442 0.399,-0.457 0.384,-0.47C0.369,-0.482 0.351,-0.491 0.332,-0.497C0.313,-0.503 0.292,-0.506 0.271,-0.506C0.23,-0.506 0.196,-0.498 0.168,-0.483C0.139,-0.467 0.117,-0.447 0.1,-0.422C0.083,-0.397 0.07,-0.369 0.063,-0.338C0.055,-0.307 0.051,-0.276 0.051,-0.246C0.051,-0.215 0.056,-0.185 0.065,-0.156C0.074,-0.127 0.087,-0.102 0.104,-0.08C0.121,-0.058 0.143,-0.041 0.169,-0.028C0.195,-0.015 0.225,-0.008 0.259,-0.008C0.284,-0.008 0.308,-0.012 0.33,-0.02C0.352,-0.027 0.372,-0.038 0.389,-0.053C0.406,-0.068 0.419,-0.085 0.43,-0.106C0.441,-0.126 0.447,-0.149 0.449,-0.175L0.469,-0.175Z" style="fill-rule:nonzero;"/>
        </g>
        <g transform="matrix(128,0,0,128,1062.96,530.94)">
            <path d="M0.048,-0.257C0.048,-0.224 0.053,-0.193 0.062,-0.163C0.071,-0.133 0.084,-0.107 0.102,-0.084C0.12,-0.061 0.142,-0.042 0.169,-0.029C0.195,-0.015 0.225,-0.008 0.26,-0.008C0.294,-0.008 0.324,-0.015 0.351,-0.029C0.377,-0.042 0.399,-0.061 0.417,-0.084C0.435,-0.107 0.449,-0.133 0.458,-0.163C0.467,-0.193 0.471,-0.224 0.471,-0.257C0.471,-0.289 0.467,-0.32 0.458,-0.35C0.449,-0.38 0.435,-0.407 0.417,-0.43C0.399,-0.453 0.377,-0.471 0.351,-0.485C0.324,-0.499 0.294,-0.506 0.26,-0.506C0.225,-0.506 0.195,-0.499 0.169,-0.485C0.142,-0.471 0.12,-0.453 0.102,-0.43C0.084,-0.407 0.071,-0.38 0.062,-0.35C0.053,-0.32 0.048,-0.289 0.048,-0.257ZM0.028,-0.257C0.028,-0.292 0.033,-0.326 0.043,-0.359C0.053,-0.391 0.068,-0.419 0.088,-0.444C0.107,-0.469 0.131,-0.489 0.16,-0.504C0.189,-0.519 0.222,-0.526 0.26,-0.526C0.297,-0.526 0.33,-0.519 0.359,-0.504C0.388,-0.489 0.412,-0.469 0.432,-0.444C0.451,-0.419 0.466,-0.391 0.476,-0.359C0.486,-0.326 0.491,-0.292 0.491,-0.257C0.491,-0.222 0.486,-0.188 0.476,-0.156C0.466,-0.123 0.451,-0.095 0.432,-0.07C0.412,-0.045 0.388,-0.026 0.359,-0.011C0.33,0.004 0.297,0.011 0.259,0.011C0.222,0.011 0.189,0.004 0.16,-0.011C0.131,-0.026 0.107,-0.045 0.088,-0.07C0.068,-0.095 0.053,-0.123 0.043,-0.156C0.033,-0.188 0.028,-0.222 0.028,-0.257Z" style="fill-rule:nonzero;"/>
        </g>
        <g transform="matrix(128,0,0,128,1129.39,530.94)">
            <path d="M0.455,-0.714L0.475,-0.714L0.475,-0L0.455,-0L0.455,-0.144L0.453,-0.144C0.44,-0.098 0.415,-0.061 0.38,-0.032C0.344,-0.003 0.3,0.011 0.247,0.011C0.213,0.011 0.183,0.004 0.156,-0.009C0.129,-0.022 0.106,-0.041 0.087,-0.065C0.068,-0.088 0.053,-0.116 0.043,-0.149C0.033,-0.182 0.028,-0.217 0.028,-0.256C0.028,-0.292 0.033,-0.326 0.043,-0.359C0.052,-0.392 0.066,-0.42 0.085,-0.445C0.103,-0.47 0.126,-0.489 0.153,-0.504C0.18,-0.519 0.212,-0.526 0.247,-0.526C0.302,-0.526 0.347,-0.512 0.382,-0.483C0.417,-0.454 0.441,-0.417 0.453,-0.37L0.455,-0.37L0.455,-0.714ZM0.455,-0.256C0.455,-0.337 0.436,-0.399 0.398,-0.442C0.36,-0.485 0.31,-0.506 0.247,-0.506C0.212,-0.506 0.182,-0.499 0.157,-0.484C0.132,-0.469 0.111,-0.449 0.095,-0.426C0.079,-0.402 0.067,-0.375 0.06,-0.346C0.052,-0.316 0.048,-0.286 0.048,-0.256C0.048,-0.223 0.052,-0.192 0.061,-0.162C0.069,-0.132 0.081,-0.106 0.098,-0.083C0.114,-0.06 0.135,-0.041 0.16,-0.028C0.185,-0.015 0.214,-0.008 0.247,-0.008C0.28,-0.008 0.31,-0.015 0.336,-0.028C0.361,-0.041 0.383,-0.059 0.401,-0.082C0.418,-0.105 0.432,-0.131 0.441,-0.161C0.45,-0.191 0.455,-0.223 0.455,-0.256Z" style="fill-rule:nonzero;"/>
        </g>
        <g transform="matrix(128,0,0,128,1198.13,530.94)">
            <path d="M0.045,-0.253C0.046,-0.218 0.05,-0.186 0.058,-0.157C0.065,-0.127 0.077,-0.101 0.093,-0.079C0.109,-0.057 0.13,-0.04 0.155,-0.027C0.18,-0.014 0.211,-0.008 0.248,-0.008C0.302,-0.008 0.347,-0.022 0.383,-0.051C0.418,-0.079 0.44,-0.121 0.449,-0.178L0.469,-0.178C0.462,-0.118 0.438,-0.072 0.398,-0.039C0.358,-0.006 0.309,0.011 0.25,0.011C0.21,0.012 0.176,0.005 0.148,-0.008C0.119,-0.021 0.096,-0.04 0.078,-0.065C0.06,-0.089 0.047,-0.118 0.038,-0.151C0.029,-0.184 0.025,-0.219 0.025,-0.257C0.025,-0.3 0.031,-0.338 0.044,-0.371C0.057,-0.404 0.073,-0.433 0.094,-0.456C0.115,-0.479 0.139,-0.496 0.166,-0.508C0.193,-0.52 0.221,-0.526 0.25,-0.526C0.29,-0.526 0.325,-0.518 0.354,-0.503C0.383,-0.488 0.406,-0.467 0.425,-0.442C0.443,-0.417 0.456,-0.388 0.465,-0.355C0.473,-0.322 0.476,-0.288 0.475,-0.253L0.045,-0.253ZM0.455,-0.273C0.455,-0.304 0.451,-0.334 0.442,-0.363C0.433,-0.391 0.421,-0.416 0.404,-0.437C0.387,-0.458 0.365,-0.475 0.34,-0.488C0.315,-0.5 0.285,-0.506 0.252,-0.506C0.224,-0.506 0.198,-0.501 0.174,-0.49C0.149,-0.479 0.128,-0.464 0.11,-0.444C0.091,-0.423 0.076,-0.399 0.065,-0.37C0.054,-0.341 0.047,-0.309 0.045,-0.273L0.455,-0.273Z" style="fill-rule:nonzero;"/>
        </g>
        <g transform="matrix(128,0,0,128,1262.13,530.94)">
            <path d="M0.29,-0.506L0.31,-0.506L0.31,-0.263L0.552,-0.263L0.552,-0.243L0.31,-0.243L0.31,-0L0.29,-0L0.29,-0.243L0.048,-0.243L0.048,-0.263L0.29,-0.263L0.29,-0.506Z" style="fill-rule:nonzero;"/>
        </g>
    </g>
    <g transform="matrix(0.303225,0,0,0.303225,-19.181,804.269)">
        <g transform="matrix(128,0,0,128,726.317,399.484)">
            <path d="M0.31,-0.063C0.326,-0.063 0.342,-0.066 0.358,-0.071C0.373,-0.076 0.387,-0.084 0.399,-0.093C0.411,-0.102 0.421,-0.113 0.428,-0.126C0.435,-0.138 0.439,-0.152 0.439,-0.167L0.525,-0.167C0.525,-0.143 0.518,-0.121 0.507,-0.099C0.495,-0.078 0.479,-0.059 0.459,-0.043C0.439,-0.027 0.416,-0.014 0.391,-0.005C0.365,0.005 0.338,0.01 0.31,0.01C0.27,0.01 0.235,0.003 0.205,-0.012C0.175,-0.026 0.15,-0.045 0.13,-0.07C0.11,-0.094 0.095,-0.122 0.085,-0.154C0.075,-0.185 0.07,-0.219 0.07,-0.254L0.07,-0.274C0.07,-0.309 0.075,-0.343 0.085,-0.375C0.095,-0.406 0.11,-0.434 0.13,-0.459C0.15,-0.483 0.175,-0.502 0.205,-0.517C0.235,-0.531 0.27,-0.538 0.31,-0.538C0.341,-0.538 0.37,-0.533 0.396,-0.523C0.422,-0.513 0.445,-0.5 0.464,-0.483C0.483,-0.466 0.498,-0.445 0.509,-0.422C0.52,-0.398 0.525,-0.373 0.525,-0.347L0.439,-0.347C0.439,-0.363 0.436,-0.378 0.429,-0.392C0.422,-0.406 0.413,-0.418 0.402,-0.429C0.39,-0.44 0.377,-0.448 0.361,-0.455C0.345,-0.461 0.328,-0.464 0.31,-0.464C0.282,-0.464 0.259,-0.458 0.24,-0.447C0.22,-0.436 0.205,-0.421 0.193,-0.403C0.182,-0.385 0.173,-0.365 0.168,-0.342C0.163,-0.32 0.161,-0.297 0.161,-0.274L0.161,-0.254C0.161,-0.231 0.163,-0.208 0.168,-0.185C0.173,-0.163 0.182,-0.142 0.193,-0.124C0.205,-0.106 0.22,-0.092 0.239,-0.08C0.258,-0.069 0.282,-0.063 0.31,-0.063Z" style="fill-rule:nonzero;"/>
        </g>
        <g transform="matrix(128,0,0,128,803.13,399.484)">
            <path d="M0.06,-0.269C0.06,-0.307 0.065,-0.343 0.076,-0.375C0.087,-0.408 0.103,-0.436 0.124,-0.46C0.144,-0.485 0.17,-0.503 0.199,-0.517C0.229,-0.531 0.262,-0.538 0.299,-0.538C0.337,-0.538 0.37,-0.531 0.4,-0.517C0.43,-0.503 0.455,-0.485 0.476,-0.46C0.497,-0.436 0.512,-0.408 0.523,-0.375C0.535,-0.343 0.54,-0.307 0.54,-0.269L0.54,-0.258C0.54,-0.22 0.535,-0.185 0.523,-0.152C0.512,-0.12 0.497,-0.091 0.476,-0.067C0.455,-0.043 0.43,-0.024 0.4,-0.011C0.371,0.003 0.337,0.01 0.3,0.01C0.263,0.01 0.229,0.003 0.199,-0.011C0.17,-0.024 0.144,-0.043 0.124,-0.067C0.103,-0.091 0.087,-0.12 0.076,-0.152C0.065,-0.185 0.06,-0.22 0.06,-0.258L0.06,-0.269ZM0.15,-0.258C0.15,-0.232 0.153,-0.207 0.159,-0.184C0.165,-0.16 0.175,-0.139 0.187,-0.122C0.2,-0.104 0.215,-0.09 0.234,-0.079C0.253,-0.069 0.275,-0.063 0.3,-0.063C0.325,-0.063 0.347,-0.069 0.365,-0.079C0.384,-0.09 0.4,-0.104 0.412,-0.122C0.425,-0.139 0.434,-0.16 0.44,-0.184C0.447,-0.207 0.45,-0.232 0.45,-0.258L0.45,-0.269C0.45,-0.295 0.447,-0.319 0.44,-0.343C0.434,-0.367 0.424,-0.387 0.412,-0.405C0.399,-0.423 0.384,-0.437 0.365,-0.448C0.346,-0.459 0.324,-0.464 0.299,-0.464C0.274,-0.464 0.252,-0.459 0.234,-0.448C0.215,-0.437 0.2,-0.423 0.187,-0.405C0.175,-0.387 0.165,-0.367 0.159,-0.343C0.153,-0.319 0.15,-0.295 0.15,-0.269L0.15,-0.258Z" style="fill-rule:nonzero;"/>
        </g>
        <g transform="matrix(128,0,0,128,879.942,399.484)">
            <path d="M0.126,-0.528L0.129,-0.479C0.14,-0.497 0.154,-0.512 0.171,-0.522C0.189,-0.532 0.21,-0.538 0.234,-0.538C0.283,-0.538 0.315,-0.519 0.332,-0.481C0.342,-0.498 0.356,-0.512 0.373,-0.522C0.39,-0.532 0.411,-0.538 0.435,-0.538C0.474,-0.538 0.504,-0.526 0.524,-0.502C0.545,-0.479 0.556,-0.443 0.556,-0.395L0.556,-0L0.47,-0L0.47,-0.396C0.47,-0.44 0.449,-0.462 0.409,-0.461C0.398,-0.461 0.389,-0.46 0.381,-0.457C0.373,-0.454 0.367,-0.45 0.361,-0.445C0.356,-0.44 0.352,-0.434 0.349,-0.427C0.346,-0.421 0.344,-0.414 0.343,-0.407L0.343,-0L0.257,-0L0.257,-0.396C0.257,-0.417 0.253,-0.433 0.243,-0.445C0.234,-0.456 0.219,-0.462 0.198,-0.461C0.179,-0.461 0.165,-0.458 0.154,-0.45C0.144,-0.443 0.136,-0.433 0.131,-0.42L0.131,-0L0.045,-0L0.045,-0.528L0.126,-0.528Z" style="fill-rule:nonzero;"/>
        </g>
        <g transform="matrix(128,0,0,128,956.755,399.484)">
            <path d="M0.531,-0.258C0.531,-0.221 0.526,-0.185 0.517,-0.153C0.508,-0.12 0.495,-0.091 0.477,-0.067C0.459,-0.043 0.438,-0.024 0.412,-0.011C0.386,0.003 0.356,0.01 0.323,0.01C0.291,0.01 0.263,0.005 0.238,-0.006C0.213,-0.016 0.192,-0.031 0.175,-0.051L0.175,0.203L0.084,0.203L0.084,-0.528L0.167,-0.528L0.171,-0.471C0.189,-0.493 0.21,-0.509 0.235,-0.521C0.26,-0.532 0.289,-0.538 0.322,-0.538C0.356,-0.538 0.386,-0.531 0.412,-0.518C0.438,-0.505 0.459,-0.486 0.477,-0.462C0.495,-0.439 0.508,-0.41 0.517,-0.377C0.526,-0.344 0.531,-0.308 0.531,-0.269L0.531,-0.258ZM0.44,-0.269C0.44,-0.294 0.438,-0.319 0.432,-0.342C0.426,-0.365 0.417,-0.386 0.406,-0.404C0.394,-0.421 0.379,-0.435 0.36,-0.446C0.342,-0.456 0.32,-0.461 0.295,-0.461C0.266,-0.461 0.242,-0.455 0.222,-0.441C0.202,-0.428 0.187,-0.41 0.175,-0.389L0.175,-0.135C0.187,-0.114 0.202,-0.097 0.222,-0.084C0.241,-0.071 0.266,-0.064 0.296,-0.064C0.321,-0.064 0.343,-0.069 0.361,-0.08C0.379,-0.09 0.394,-0.105 0.406,-0.123C0.417,-0.14 0.426,-0.161 0.432,-0.185C0.438,-0.208 0.44,-0.233 0.44,-0.258L0.44,-0.269Z" style="fill-rule:nonzero;"/>
        </g>
        <g transform="matrix(128,0,0,128,1033.57,399.484)">
            <path d="M0.06,-0.269C0.06,-0.307 0.065,-0.343 0.076,-0.375C0.087,-0.408 0.103,-0.436 0.124,-0.46C0.144,-0.485 0.17,-0.503 0.199,-0.517C0.229,-0.531 0.262,-0.538 0.299,-0.538C0.337,-0.538 0.37,-0.531 0.4,-0.517C0.43,-0.503 0.455,-0.485 0.476,-0.46C0.497,-0.436 0.512,-0.408 0.523,-0.375C0.535,-0.343 0.54,-0.307 0.54,-0.269L0.54,-0.258C0.54,-0.22 0.535,-0.185 0.523,-0.152C0.512,-0.12 0.497,-0.091 0.476,-0.067C0.455,-0.043 0.43,-0.024 0.4,-0.011C0.371,0.003 0.337,0.01 0.3,0.01C0.263,0.01 0.229,0.003 0.199,-0.011C0.17,-0.024 0.144,-0.043 0.124,-0.067C0.103,-0.091 0.087,-0.12 0.076,-0.152C0.065,-0.185 0.06,-0.22 0.06,-0.258L0.06,-0.269ZM0.15,-0.258C0.15,-0.232 0.153,-0.207 0.159,-0.184C0.165,-0.16 0.175,-0.139 0.187,-0.122C0.2,-0.104 0.215,-0.09 0.234,-0.079C0.253,-0.069 0.275,-0.063 0.3,-0.063C0.325,-0.063 0.347,-0.069 0.365,-0.079C0.384,-0.09 0.4,-0.104 0.412,-0.122C0.425,-0.139 0.434,-0.16 0.44,-0.184C0.447,-0.207 0.45,-0.232 0.45,-0.258L0.45,-0.269C0.45,-0.295 0.447,-0.319 0.44,-0.343C0.434,-0.367 0.424,-0.387 0.412,-0.405C0.399,-0.423 0.384,-0.437 0.365,-0.448C0.346,-0.459 0.324,-0.464 0.299,-0.464C0.274,-0.464 0.252,-0.459 0.234,-0.448C0.215,-0.437 0.2,-0.423 0.187,-0.405C0.175,-0.387 0.165,-0.367 0.159,-0.343C0.153,-0.319 0.15,-0.295 0.15,-0.269L0.15,-0.258Z" style="fill-rule:nonzero;"/>
        </g>
        <g transform="matrix(128,0,0,128,1110.38,399.484)">
            <path d="M0.436,-0.14C0.436,-0.151 0.434,-0.161 0.43,-0.169C0.425,-0.178 0.418,-0.186 0.408,-0.193C0.398,-0.2 0.385,-0.207 0.368,-0.213C0.352,-0.219 0.331,-0.224 0.306,-0.229C0.276,-0.235 0.248,-0.243 0.223,-0.251C0.198,-0.26 0.177,-0.271 0.159,-0.283C0.142,-0.295 0.128,-0.309 0.118,-0.326C0.108,-0.342 0.104,-0.361 0.104,-0.383C0.104,-0.405 0.109,-0.425 0.119,-0.444C0.129,-0.462 0.143,-0.479 0.161,-0.493C0.179,-0.507 0.201,-0.518 0.226,-0.526C0.252,-0.534 0.279,-0.538 0.31,-0.538C0.342,-0.538 0.371,-0.534 0.397,-0.525C0.424,-0.517 0.446,-0.505 0.464,-0.49C0.482,-0.475 0.496,-0.458 0.506,-0.438C0.516,-0.418 0.521,-0.396 0.521,-0.373L0.431,-0.373C0.431,-0.384 0.428,-0.396 0.422,-0.406C0.416,-0.417 0.408,-0.427 0.397,-0.436C0.387,-0.444 0.374,-0.451 0.36,-0.456C0.345,-0.461 0.328,-0.464 0.31,-0.464C0.29,-0.464 0.274,-0.462 0.259,-0.458C0.245,-0.453 0.233,-0.448 0.223,-0.44C0.213,-0.433 0.206,-0.425 0.201,-0.416C0.196,-0.406 0.194,-0.396 0.194,-0.386C0.194,-0.376 0.196,-0.367 0.2,-0.358C0.204,-0.35 0.21,-0.343 0.22,-0.336C0.23,-0.33 0.242,-0.324 0.259,-0.319C0.275,-0.314 0.295,-0.309 0.32,-0.304C0.352,-0.297 0.382,-0.289 0.407,-0.28C0.433,-0.271 0.455,-0.26 0.472,-0.248C0.49,-0.235 0.503,-0.221 0.512,-0.204C0.522,-0.188 0.526,-0.168 0.526,-0.146C0.526,-0.123 0.521,-0.102 0.51,-0.083C0.5,-0.063 0.485,-0.047 0.466,-0.033C0.447,-0.02 0.425,-0.009 0.398,-0.001C0.372,0.006 0.343,0.01 0.312,0.01C0.276,0.01 0.244,0.005 0.216,-0.005C0.188,-0.014 0.165,-0.027 0.145,-0.043C0.126,-0.059 0.111,-0.077 0.101,-0.098C0.091,-0.118 0.085,-0.14 0.085,-0.163L0.176,-0.163C0.177,-0.144 0.182,-0.128 0.191,-0.116C0.199,-0.103 0.21,-0.093 0.223,-0.085C0.236,-0.077 0.25,-0.072 0.266,-0.068C0.281,-0.065 0.297,-0.063 0.312,-0.063C0.35,-0.063 0.38,-0.07 0.402,-0.084C0.424,-0.098 0.436,-0.117 0.436,-0.14Z" style="fill-rule:nonzero;"/>
        </g>
        <g transform="matrix(128,0,0,128,1187.19,399.484)">
            <path d="M0.318,0.01C0.281,0.01 0.247,0.003 0.216,-0.009C0.185,-0.022 0.158,-0.04 0.136,-0.063C0.114,-0.085 0.097,-0.112 0.084,-0.144C0.072,-0.175 0.066,-0.209 0.066,-0.246L0.066,-0.266C0.066,-0.309 0.073,-0.347 0.086,-0.381C0.1,-0.414 0.118,-0.443 0.141,-0.466C0.163,-0.489 0.189,-0.507 0.218,-0.52C0.247,-0.532 0.276,-0.538 0.307,-0.538C0.345,-0.538 0.378,-0.531 0.406,-0.518C0.435,-0.505 0.459,-0.487 0.478,-0.464C0.496,-0.44 0.51,-0.413 0.52,-0.381C0.529,-0.35 0.534,-0.316 0.534,-0.279L0.534,-0.238L0.156,-0.238C0.157,-0.214 0.162,-0.192 0.17,-0.17C0.178,-0.149 0.19,-0.131 0.204,-0.115C0.219,-0.099 0.236,-0.087 0.256,-0.078C0.277,-0.069 0.299,-0.064 0.323,-0.064C0.355,-0.064 0.384,-0.07 0.409,-0.083C0.434,-0.097 0.455,-0.114 0.472,-0.135L0.527,-0.092C0.518,-0.079 0.507,-0.066 0.494,-0.054C0.481,-0.042 0.465,-0.031 0.448,-0.021C0.431,-0.012 0.411,-0.004 0.39,0.001C0.368,0.007 0.344,0.01 0.318,0.01ZM0.307,-0.464C0.288,-0.464 0.271,-0.461 0.255,-0.454C0.239,-0.447 0.224,-0.437 0.211,-0.425C0.198,-0.412 0.187,-0.396 0.178,-0.377C0.169,-0.358 0.163,-0.337 0.159,-0.313L0.443,-0.313L0.443,-0.319C0.442,-0.337 0.439,-0.354 0.433,-0.372C0.428,-0.389 0.419,-0.404 0.408,-0.418C0.397,-0.432 0.383,-0.443 0.366,-0.451C0.35,-0.46 0.33,-0.464 0.307,-0.464Z" style="fill-rule:nonzero;"/>
        </g>
        <g transform="matrix(128,0,0,128,1264,399.484)">
            <path d="M0.431,-0.538C0.44,-0.538 0.448,-0.538 0.458,-0.537C0.467,-0.537 0.475,-0.536 0.484,-0.535C0.492,-0.534 0.5,-0.532 0.507,-0.531C0.514,-0.529 0.519,-0.527 0.524,-0.525L0.512,-0.437C0.494,-0.441 0.477,-0.444 0.462,-0.446C0.446,-0.447 0.429,-0.448 0.412,-0.448C0.37,-0.448 0.336,-0.439 0.309,-0.419C0.283,-0.4 0.264,-0.373 0.251,-0.339L0.251,-0L0.161,-0L0.161,-0.528L0.247,-0.528L0.251,-0.444C0.272,-0.473 0.298,-0.496 0.328,-0.513C0.358,-0.53 0.393,-0.538 0.431,-0.538Z" style="fill-rule:nonzero;"/>
        </g>
        <g transform="matrix(128,0,0,128,1417.63,399.484)">
            <path d="M0.431,-0.538C0.44,-0.538 0.448,-0.538 0.458,-0.537C0.467,-0.537 0.475,-0.536 0.484,-0.535C0.492,-0.534 0.5,-0.532 0.507,-0.531C0.514,-0.529 0.519,-0.527 0.524,-0.525L0.512,-0.437C0.494,-0.441 0.477,-0.444 0.462,-0.446C0.446,-0.447 0.429,-0.448 0.412,-0.448C0.37,-0.448 0.336,-0.439 0.309,-0.419C0.283,-0.4 0.264,-0.373 0.251,-0.339L0.251,-0L0.161,-0L0.161,-0.528L0.247,-0.528L0.251,-0.444C0.272,-0.473 0.298,-0.496 0.328,-0.513C0.358,-0.53 0.393,-0.538 0.431,-0.538Z" style="fill-rule:nonzero;"/>
        </g>
        <g transform="matrix(128,0,0,128,1494.44,399.484)">
            <path d="M0.318,0.01C0.281,0.01 0.247,0.003 0.216,-0.009C0.185,-0.022 0.158,-0.04 0.136,-0.063C0.114,-0.085 0.097,-0.112 0.084,-0.144C0.072,-0.175 0.066,-0.209 0.066,-0.246L0.066,-0.266C0.066,-0.309 0.073,-0.347 0.086,-0.381C0.1,-0.414 0.118,-0.443 0.141,-0.466C0.163,-0.489 0.189,-0.507 0.218,-0.52C0.247,-0.532 0.276,-0.538 0.307,-0.538C0.345,-0.538 0.378,-0.531 0.406,-0.518C0.435,-0.505 0.459,-0.487 0.478,-0.464C0.496,-0.44 0.51,-0.413 0.52,-0.381C0.529,-0.35 0.534,-0.316 0.534,-0.279L0.534,-0.238L0.156,-0.238C0.157,-0.214 0.162,-0.192 0.17,-0.17C0.178,-0.149 0.19,-0.131 0.204,-0.115C0.219,-0.099 0.236,-0.087 0.256,-0.078C0.277,-0.069 0.299,-0.064 0.323,-0.064C0.355,-0.064 0.384,-0.07 0.409,-0.083C0.434,-0.097 0.455,-0.114 0.472,-0.135L0.527,-0.092C0.518,-0.079 0.507,-0.066 0.494,-0.054C0.481,-0.042 0.465,-0.031 0.448,-0.021C0.431,-0.012 0.411,-0.004 0.39,0.001C0.368,0.007 0.344,0.01 0.318,0.01ZM0.307,-0.464C0.288,-0.464 0.271,-0.461 0.255,-0.454C0.239,-0.447 0.224,-0.437 0.211,-0.425C0.198,-0.412 0.187,-0.396 0.178,-0.377C0.169,-0.358 0.163,-0.337 0.159,-0.313L0.443,-0.313L0.443,-0.319C0.442,-0.337 0.439,-0.354 0.433,-0.372C0.428,-0.389 0.419,-0.404 0.408,-0.418C0.397,-0.432 0.383,-0.443 0.366,-0.451C0.35,-0.46 0.33,-0.464 0.307,-0.464Z" style="fill-rule:nonzero;"/>
        </g>
        <g transform="matrix(128,0,0,128,1571.25,399.484)">
            <path d="M0.068,-0.269C0.068,-0.308 0.073,-0.344 0.083,-0.377C0.092,-0.41 0.106,-0.439 0.124,-0.462C0.142,-0.486 0.165,-0.505 0.191,-0.518C0.218,-0.531 0.248,-0.538 0.282,-0.538C0.313,-0.538 0.341,-0.533 0.365,-0.522C0.388,-0.512 0.409,-0.496 0.427,-0.476L0.431,-0.528L0.514,-0.528L0.514,0.203L0.423,0.203L0.423,-0.048C0.406,-0.029 0.385,-0.015 0.362,-0.005C0.338,0.005 0.311,0.01 0.281,0.01C0.247,0.01 0.217,0.003 0.191,-0.011C0.165,-0.024 0.143,-0.043 0.125,-0.067C0.106,-0.091 0.092,-0.12 0.083,-0.153C0.073,-0.185 0.068,-0.221 0.068,-0.258L0.068,-0.269ZM0.159,-0.258C0.159,-0.233 0.162,-0.208 0.167,-0.185C0.173,-0.161 0.182,-0.14 0.193,-0.123C0.205,-0.105 0.22,-0.09 0.238,-0.08C0.256,-0.069 0.278,-0.064 0.303,-0.064C0.332,-0.064 0.356,-0.07 0.375,-0.083C0.395,-0.097 0.411,-0.113 0.423,-0.134L0.423,-0.395C0.417,-0.405 0.41,-0.414 0.402,-0.423C0.394,-0.431 0.385,-0.438 0.375,-0.444C0.365,-0.451 0.354,-0.455 0.343,-0.459C0.331,-0.462 0.318,-0.464 0.304,-0.464C0.279,-0.464 0.257,-0.458 0.239,-0.448C0.221,-0.437 0.205,-0.423 0.194,-0.405C0.182,-0.386 0.173,-0.366 0.167,-0.342C0.162,-0.319 0.159,-0.294 0.159,-0.269L0.159,-0.258Z" style="fill-rule:nonzero;"/>
        </g>
        <g transform="matrix(128,0,0,128,1648.07,399.484)">
            <path d="M0.428,-0.073C0.41,-0.047 0.388,-0.026 0.362,-0.012C0.335,0.003 0.305,0.01 0.271,0.01C0.243,0.01 0.218,0.005 0.195,-0.003C0.173,-0.012 0.154,-0.025 0.138,-0.043C0.122,-0.062 0.109,-0.085 0.101,-0.113C0.092,-0.141 0.088,-0.175 0.088,-0.214L0.088,-0.528L0.178,-0.528L0.178,-0.213C0.178,-0.185 0.181,-0.161 0.185,-0.142C0.19,-0.123 0.196,-0.108 0.206,-0.097C0.215,-0.086 0.226,-0.078 0.239,-0.073C0.252,-0.069 0.267,-0.066 0.285,-0.066C0.321,-0.066 0.351,-0.074 0.374,-0.089C0.396,-0.104 0.413,-0.124 0.424,-0.149L0.424,-0.528L0.515,-0.528L0.515,-0L0.433,-0L0.428,-0.073Z" style="fill-rule:nonzero;"/>
        </g>
        <g transform="matrix(128,0,0,128,1724.88,399.484)">
            <path d="M0.099,-0.528L0.369,-0.528L0.369,-0.078L0.542,-0.078L0.542,-0L0.099,-0L0.099,-0.078L0.279,-0.078L0.279,-0.45L0.099,-0.45L0.099,-0.528ZM0.267,-0.667C0.267,-0.682 0.272,-0.695 0.281,-0.705C0.289,-0.715 0.303,-0.72 0.321,-0.72C0.339,-0.72 0.353,-0.715 0.362,-0.705C0.371,-0.695 0.375,-0.682 0.375,-0.667C0.375,-0.652 0.371,-0.64 0.362,-0.63C0.353,-0.621 0.339,-0.616 0.321,-0.616C0.303,-0.616 0.289,-0.621 0.281,-0.63C0.272,-0.64 0.267,-0.652 0.267,-0.667Z" style="fill-rule:nonzero;"/>
        </g>
        <g transform="matrix(128,0,0,128,1801.69,399.484)">
            <path d="M0.431,-0.538C0.44,-0.538 0.448,-0.538 0.458,-0.537C0.467,-0.537 0.475,-0.536 0.484,-0.535C0.492,-0.534 0.5,-0.532 0.507,-0.531C0.514,-0.529 0.519,-0.527 0.524,-0.525L0.512,-0.437C0.494,-0.441 0.477,-0.444 0.462,-0.446C0.446,-0.447 0.429,-0.448 0.412,-0.448C0.37,-0.448 0.336,-0.439 0.309,-0.419C0.283,-0.4 0.264,-0.373 0.251,-0.339L0.251,-0L0.161,-0L0.161,-0.528L0.247,-0.528L0.251,-0.444C0.272,-0.473 0.298,-0.496 0.328,-0.513C0.358,-0.53 0.393,-0.538 0.431,-0.538Z" style="fill-rule:nonzero;"/>
        </g>
        <g transform="matrix(128,0,0,128,1878.5,399.484)">
            <path d="M0.318,0.01C0.281,0.01 0.247,0.003 0.216,-0.009C0.185,-0.022 0.158,-0.04 0.136,-0.063C0.114,-0.085 0.097,-0.112 0.084,-0.144C0.072,-0.175 0.066,-0.209 0.066,-0.246L0.066,-0.266C0.066,-0.309 0.073,-0.347 0.086,-0.381C0.1,-0.414 0.118,-0.443 0.141,-0.466C0.163,-0.489 0.189,-0.507 0.218,-0.52C0.247,-0.532 0.276,-0.538 0.307,-0.538C0.345,-0.538 0.378,-0.531 0.406,-0.518C0.435,-0.505 0.459,-0.487 0.478,-0.464C0.496,-0.44 0.51,-0.413 0.52,-0.381C0.529,-0.35 0.534,-0.316 0.534,-0.279L0.534,-0.238L0.156,-0.238C0.157,-0.214 0.162,-0.192 0.17,-0.17C0.178,-0.149 0.19,-0.131 0.204,-0.115C0.219,-0.099 0.236,-0.087 0.256,-0.078C0.277,-0.069 0.299,-0.064 0.323,-0.064C0.355,-0.064 0.384,-0.07 0.409,-0.083C0.434,-0.097 0.455,-0.114 0.472,-0.135L0.527,-0.092C0.518,-0.079 0.507,-0.066 0.494,-0.054C0.481,-0.042 0.465,-0.031 0.448,-0.021C0.431,-0.012 0.411,-0.004 0.39,0.001C0.368,0.007 0.344,0.01 0.318,0.01ZM0.307,-0.464C0.288,-0.464 0.271,-0.461 0.255,-0.454C0.239,-0.447 0.224,-0.437 0.211,-0.425C0.198,-0.412 0.187,-0.396 0.178,-0.377C0.169,-0.358 0.163,-0.337 0.159,-0.313L0.443,-0.313L0.443,-0.319C0.442,-0.337 0.439,-0.354 0.433,-0.372C0.428,-0.389 0.419,-0.404 0.408,-0.418C0.397,-0.432 0.383,-0.443 0.366,-0.451C0.35,-0.46 0.33,-0.464 0.307,-0.464Z" style="fill-rule:nonzero;"/>
        </g>
        <g transform="matrix(128,0,0,128,2032.13,399.484)">
            <path d="M0.126,-0.528L0.129,-0.479C0.14,-0.497 0.154,-0.512 0.171,-0.522C0.189,-0.532 0.21,-0.538 0.234,-0.538C0.283,-0.538 0.315,-0.519 0.332,-0.481C0.342,-0.498 0.356,-0.512 0.373,-0.522C0.39,-0.532 0.411,-0.538 0.435,-0.538C0.474,-0.538 0.504,-0.526 0.524,-0.502C0.545,-0.479 0.556,-0.443 0.556,-0.395L0.556,-0L0.47,-0L0.47,-0.396C0.47,-0.44 0.449,-0.462 0.409,-0.461C0.398,-0.461 0.389,-0.46 0.381,-0.457C0.373,-0.454 0.367,-0.45 0.361,-0.445C0.356,-0.44 0.352,-0.434 0.349,-0.427C0.346,-0.421 0.344,-0.414 0.343,-0.407L0.343,-0L0.257,-0L0.257,-0.396C0.257,-0.417 0.253,-0.433 0.243,-0.445C0.234,-0.456 0.219,-0.462 0.198,-0.461C0.179,-0.461 0.165,-0.458 0.154,-0.45C0.144,-0.443 0.136,-0.433 0.131,-0.42L0.131,-0L0.045,-0L0.045,-0.528L0.126,-0.528Z" style="fill-rule:nonzero;"/>
        </g>
        <g transform="matrix(128,0,0,128,2108.94,399.484)">
            <path d="M0.428,-0.073C0.41,-0.047 0.388,-0.026 0.362,-0.012C0.335,0.003 0.305,0.01 0.271,0.01C0.243,0.01 0.218,0.005 0.195,-0.003C0.173,-0.012 0.154,-0.025 0.138,-0.043C0.122,-0.062 0.109,-0.085 0.101,-0.113C0.092,-0.141 0.088,-0.175 0.088,-0.214L0.088,-0.528L0.178,-0.528L0.178,-0.213C0.178,-0.185 0.181,-0.161 0.185,-0.142C0.19,-0.123 0.196,-0.108 0.206,-0.097C0.215,-0.086 0.226,-0.078 0.239,-0.073C0.252,-0.069 0.267,-0.066 0.285,-0.066C0.321,-0.066 0.351,-0.074 0.374,-0.089C0.396,-0.104 0.413,-0.124 0.424,-0.149L0.424,-0.528L0.515,-0.528L0.515,-0L0.433,-0L0.428,-0.073Z" style="fill-rule:nonzero;"/>
        </g>
        <g transform="matrix(128,0,0,128,2185.75,399.484)">
            <path d="M0.431,-0.538C0.44,-0.538 0.448,-0.538 0.458,-0.537C0.467,-0.537 0.475,-0.536 0.484,-0.535C0.492,-0.534 0.5,-0.532 0.507,-0.531C0.514,-0.529 0.519,-0.527 0.524,-0.525L0.512,-0.437C0.494,-0.441 0.477,-0.444 0.462,-0.446C0.446,-0.447 0.429,-0.448 0.412,-0.448C0.37,-0.448 0.336,-0.439 0.309,-0.419C0.283,-0.4 0.264,-0.373 0.251,-0.339L0.251,-0L0.161,-0L0.161,-0.528L0.247,-0.528L0.251,-0.444C0.272,-0.473 0.298,-0.496 0.328,-0.513C0.358,-0.53 0.393,-0.538 0.431,-0.538Z" style="fill-rule:nonzero;"/>
        </g>
        <g transform="matrix(128,0,0,128,2262.57,399.484)">
            <path d="M0.068,-0.269C0.068,-0.308 0.073,-0.344 0.083,-0.377C0.093,-0.41 0.107,-0.439 0.125,-0.462C0.144,-0.486 0.166,-0.505 0.192,-0.518C0.218,-0.531 0.247,-0.538 0.279,-0.538C0.311,-0.538 0.338,-0.533 0.362,-0.522C0.386,-0.512 0.406,-0.496 0.423,-0.476L0.423,-0.75L0.514,-0.75L0.514,-0L0.431,-0L0.427,-0.056C0.409,-0.034 0.388,-0.018 0.364,-0.007C0.339,0.004 0.311,0.01 0.278,0.01C0.246,0.01 0.218,0.003 0.192,-0.011C0.166,-0.024 0.144,-0.043 0.125,-0.067C0.107,-0.091 0.093,-0.12 0.083,-0.153C0.073,-0.185 0.068,-0.221 0.068,-0.258L0.068,-0.269ZM0.158,-0.258C0.158,-0.233 0.161,-0.208 0.167,-0.185C0.172,-0.162 0.181,-0.142 0.192,-0.124C0.204,-0.106 0.218,-0.093 0.236,-0.082C0.254,-0.072 0.276,-0.067 0.301,-0.067C0.316,-0.067 0.33,-0.069 0.342,-0.072C0.355,-0.076 0.366,-0.081 0.376,-0.088C0.386,-0.094 0.395,-0.102 0.403,-0.112C0.411,-0.121 0.417,-0.131 0.423,-0.143L0.423,-0.388C0.412,-0.409 0.396,-0.427 0.376,-0.441C0.356,-0.455 0.331,-0.461 0.302,-0.461C0.276,-0.461 0.255,-0.456 0.237,-0.446C0.219,-0.435 0.204,-0.421 0.192,-0.404C0.181,-0.386 0.172,-0.365 0.167,-0.342C0.161,-0.319 0.158,-0.294 0.158,-0.269L0.158,-0.258Z" style="fill-rule:nonzero;"/>
        </g>
        <g transform="matrix(128,0,0,128,2339.38,399.484)">
            <path d="M0.318,0.01C0.281,0.01 0.247,0.003 0.216,-0.009C0.185,-0.022 0.158,-0.04 0.136,-0.063C0.114,-0.085 0.097,-0.112 0.084,-0.144C0.072,-0.175 0.066,-0.209 0.066,-0.246L0.066,-0.266C0.066,-0.309 0.073,-0.347 0.086,-0.381C0.1,-0.414 0.118,-0.443 0.141,-0.466C0.163,-0.489 0.189,-0.507 0.218,-0.52C0.247,-0.532 0.276,-0.538 0.307,-0.538C0.345,-0.538 0.378,-0.531 0.406,-0.518C0.435,-0.505 0.459,-0.487 0.478,-0.464C0.496,-0.44 0.51,-0.413 0.52,-0.381C0.529,-0.35 0.534,-0.316 0.534,-0.279L0.534,-0.238L0.156,-0.238C0.157,-0.214 0.162,-0.192 0.17,-0.17C0.178,-0.149 0.19,-0.131 0.204,-0.115C0.219,-0.099 0.236,-0.087 0.256,-0.078C0.277,-0.069 0.299,-0.064 0.323,-0.064C0.355,-0.064 0.384,-0.07 0.409,-0.083C0.434,-0.097 0.455,-0.114 0.472,-0.135L0.527,-0.092C0.518,-0.079 0.507,-0.066 0.494,-0.054C0.481,-0.042 0.465,-0.031 0.448,-0.021C0.431,-0.012 0.411,-0.004 0.39,0.001C0.368,0.007 0.344,0.01 0.318,0.01ZM0.307,-0.464C0.288,-0.464 0.271,-0.461 0.255,-0.454C0.239,-0.447 0.224,-0.437 0.211,-0.425C0.198,-0.412 0.187,-0.396 0.178,-0.377C0.169,-0.358 0.163,-0.337 0.159,-0.313L0.443,-0.313L0.443,-0.319C0.442,-0.337 0.439,-0.354 0.433,-0.372C0.428,-0.389 0.419,-0.404 0.408,-0.418C0.397,-0.432 0.383,-0.443 0.366,-0.451C0.35,-0.46 0.33,-0.464 0.307,-0.464Z" style="fill-rule:nonzero;"/>
        </g>
        <g transform="matrix(128,0,0,128,2416.19,399.484)">
            <path d="M0.431,-0.538C0.44,-0.538 0.448,-0.538 0.458,-0.537C0.467,-0.537 0.475,-0.536 0.484,-0.535C0.492,-0.534 0.5,-0.532 0.507,-0.531C0.514,-0.529 0.519,-0.527 0.524,-0.525L0.512,-0.437C0.494,-0.441 0.477,-0.444 0.462,-0.446C0.446,-0.447 0.429,-0.448 0.412,-0.448C0.37,-0.448 0.336,-0.439 0.309,-0.419C0.283,-0.4 0.264,-0.373 0.251,-0.339L0.251,-0L0.161,-0L0.161,-0.528L0.247,-0.528L0.251,-0.444C0.272,-0.473 0.298,-0.496 0.328,-0.513C0.358,-0.53 0.393,-0.538 0.431,-0.538Z" style="fill-rule:nonzero;"/>
        </g>
        <g transform="matrix(128,0,0,128,2493,399.484)">
            <path d="M0.31,-0.063C0.326,-0.063 0.342,-0.066 0.358,-0.071C0.373,-0.076 0.387,-0.084 0.399,-0.093C0.411,-0.102 0.421,-0.113 0.428,-0.126C0.435,-0.138 0.439,-0.152 0.439,-0.167L0.525,-0.167C0.525,-0.143 0.518,-0.121 0.507,-0.099C0.495,-0.078 0.479,-0.059 0.459,-0.043C0.439,-0.027 0.416,-0.014 0.391,-0.005C0.365,0.005 0.338,0.01 0.31,0.01C0.27,0.01 0.235,0.003 0.205,-0.012C0.175,-0.026 0.15,-0.045 0.13,-0.07C0.11,-0.094 0.095,-0.122 0.085,-0.154C0.075,-0.185 0.07,-0.219 0.07,-0.254L0.07,-0.274C0.07,-0.309 0.075,-0.343 0.085,-0.375C0.095,-0.406 0.11,-0.434 0.13,-0.459C0.15,-0.483 0.175,-0.502 0.205,-0.517C0.235,-0.531 0.27,-0.538 0.31,-0.538C0.341,-0.538 0.37,-0.533 0.396,-0.523C0.422,-0.513 0.445,-0.5 0.464,-0.483C0.483,-0.466 0.498,-0.445 0.509,-0.422C0.52,-0.398 0.525,-0.373 0.525,-0.347L0.439,-0.347C0.439,-0.363 0.436,-0.378 0.429,-0.392C0.422,-0.406 0.413,-0.418 0.402,-0.429C0.39,-0.44 0.377,-0.448 0.361,-0.455C0.345,-0.461 0.328,-0.464 0.31,-0.464C0.282,-0.464 0.259,-0.458 0.24,-0.447C0.22,-0.436 0.205,-0.421 0.193,-0.403C0.182,-0.385 0.173,-0.365 0.168,-0.342C0.163,-0.32 0.161,-0.297 0.161,-0.274L0.161,-0.254C0.161,-0.231 0.163,-0.208 0.168,-0.185C0.173,-0.163 0.182,-0.142 0.193,-0.124C0.205,-0.106 0.22,-0.092 0.239,-0.08C0.258,-0.069 0.282,-0.063 0.31,-0.063Z" style="fill-rule:nonzero;"/>
        </g>
        <g transform="matrix(128,0,0,128,2569.82,399.484)">
            <path d="M0.06,-0.269C0.06,-0.307 0.065,-0.343 0.076,-0.375C0.087,-0.408 0.103,-0.436 0.124,-0.46C0.144,-0.485 0.17,-0.503 0.199,-0.517C0.229,-0.531 0.262,-0.538 0.299,-0.538C0.337,-0.538 0.37,-0.531 0.4,-0.517C0.43,-0.503 0.455,-0.485 0.476,-0.46C0.497,-0.436 0.512,-0.408 0.523,-0.375C0.535,-0.343 0.54,-0.307 0.54,-0.269L0.54,-0.258C0.54,-0.22 0.535,-0.185 0.523,-0.152C0.512,-0.12 0.497,-0.091 0.476,-0.067C0.455,-0.043 0.43,-0.024 0.4,-0.011C0.371,0.003 0.337,0.01 0.3,0.01C0.263,0.01 0.229,0.003 0.199,-0.011C0.17,-0.024 0.144,-0.043 0.124,-0.067C0.103,-0.091 0.087,-0.12 0.076,-0.152C0.065,-0.185 0.06,-0.22 0.06,-0.258L0.06,-0.269ZM0.15,-0.258C0.15,-0.232 0.153,-0.207 0.159,-0.184C0.165,-0.16 0.175,-0.139 0.187,-0.122C0.2,-0.104 0.215,-0.09 0.234,-0.079C0.253,-0.069 0.275,-0.063 0.3,-0.063C0.325,-0.063 0.347,-0.069 0.365,-0.079C0.384,-0.09 0.4,-0.104 0.412,-0.122C0.425,-0.139 0.434,-0.16 0.44,-0.184C0.447,-0.207 0.45,-0.232 0.45,-0.258L0.45,-0.269C0.45,-0.295 0.447,-0.319 0.44,-0.343C0.434,-0.367 0.424,-0.387 0.412,-0.405C0.399,-0.423 0.384,-0.437 0.365,-0.448C0.346,-0.459 0.324,-0.464 0.299,-0.464C0.274,-0.464 0.252,-0.459 0.234,-0.448C0.215,-0.437 0.2,-0.423 0.187,-0.405C0.175,-0.387 0.165,-0.367 0.159,-0.343C0.153,-0.319 0.15,-0.295 0.15,-0.269L0.15,-0.258Z" style="fill-rule:nonzero;"/>
        </g>
        <g transform="matrix(128,0,0,128,2646.63,399.484)">
            <path d="M0.068,-0.269C0.068,-0.308 0.073,-0.344 0.083,-0.377C0.093,-0.41 0.107,-0.439 0.125,-0.462C0.144,-0.486 0.166,-0.505 0.192,-0.518C0.218,-0.531 0.247,-0.538 0.279,-0.538C0.311,-0.538 0.338,-0.533 0.362,-0.522C0.386,-0.512 0.406,-0.496 0.423,-0.476L0.423,-0.75L0.514,-0.75L0.514,-0L0.431,-0L0.427,-0.056C0.409,-0.034 0.388,-0.018 0.364,-0.007C0.339,0.004 0.311,0.01 0.278,0.01C0.246,0.01 0.218,0.003 0.192,-0.011C0.166,-0.024 0.144,-0.043 0.125,-0.067C0.107,-0.091 0.093,-0.12 0.083,-0.153C0.073,-0.185 0.068,-0.221 0.068,-0.258L0.068,-0.269ZM0.158,-0.258C0.158,-0.233 0.161,-0.208 0.167,-0.185C0.172,-0.162 0.181,-0.142 0.192,-0.124C0.204,-0.106 0.218,-0.093 0.236,-0.082C0.254,-0.072 0.276,-0.067 0.301,-0.067C0.316,-0.067 0.33,-0.069 0.342,-0.072C0.355,-0.076 0.366,-0.081 0.376,-0.088C0.386,-0.094 0.395,-0.102 0.403,-0.112C0.411,-0.121 0.417,-0.131 0.423,-0.143L0.423,-0.388C0.412,-0.409 0.396,-0.427 0.376,-0.441C0.356,-0.455 0.331,-0.461 0.302,-0.461C0.276,-0.461 0.255,-0.456 0.237,-0.446C0.219,-0.435 0.204,-0.421 0.192,-0.404C0.181,-0.386 0.172,-0.365 0.167,-0.342C0.161,-0.319 0.158,-0.294 0.158,-0.269L0.158,-0.258Z" style="fill-rule:nonzero;"/>
        </g>
        <g transform="matrix(128,0,0,128,2723.44,399.484)">
            <path d="M0.318,0.01C0.281,0.01 0.247,0.003 0.216,-0.009C0.185,-0.022 0.158,-0.04 0.136,-0.063C0.114,-0.085 0.097,-0.112 0.084,-0.144C0.072,-0.175 0.066,-0.209 0.066,-0.246L0.066,-0.266C0.066,-0.309 0.073,-0.347 0.086,-0.381C0.1,-0.414 0.118,-0.443 0.141,-0.466C0.163,-0.489 0.189,-0.507 0.218,-0.52C0.247,-0.532 0.276,-0.538 0.307,-0.538C0.345,-0.538 0.378,-0.531 0.406,-0.518C0.435,-0.505 0.459,-0.487 0.478,-0.464C0.496,-0.44 0.51,-0.413 0.52,-0.381C0.529,-0.35 0.534,-0.316 0.534,-0.279L0.534,-0.238L0.156,-0.238C0.157,-0.214 0.162,-0.192 0.17,-0.17C0.178,-0.149 0.19,-0.131 0.204,-0.115C0.219,-0.099 0.236,-0.087 0.256,-0.078C0.277,-0.069 0.299,-0.064 0.323,-0.064C0.355,-0.064 0.384,-0.07 0.409,-0.083C0.434,-0.097 0.455,-0.114 0.472,-0.135L0.527,-0.092C0.518,-0.079 0.507,-0.066 0.494,-0.054C0.481,-0.042 0.465,-0.031 0.448,-0.021C0.431,-0.012 0.411,-0.004 0.39,0.001C0.368,0.007 0.344,0.01 0.318,0.01ZM0.307,-0.464C0.288,-0.464 0.271,-0.461 0.255,-0.454C0.239,-0.447 0.224,-0.437 0.211,-0.425C0.198,-0.412 0.187,-0.396 0.178,-0.377C0.169,-0.358 0.163,-0.337 0.159,-0.313L0.443,-0.313L0.443,-0.319C0.442,-0.337 0.439,-0.354 0.433,-0.372C0.428,-0.389 0.419,-0.404 0.408,-0.418C0.397,-0.432 0.383,-0.443 0.366,-0.451C0.35,-0.46 0.33,-0.464 0.307,-0.464Z" style="fill-rule:nonzero;"/>
        </g>
        <g transform="matrix(128,0,0,128,2800.25,399.484)">
            <path d="M0.204,0.061L0.123,0.061L0.42,-0.711L0.5,-0.711L0.204,0.061Z" style="fill-rule:nonzero;"/>
        </g>
        <g transform="matrix(128,0,0,128,2877.07,399.484)">
            <path d="M0.099,-0.75L0.369,-0.75L0.369,-0.078L0.542,-0.078L0.542,-0L0.099,-0L0.099,-0.078L0.279,-0.078L0.279,-0.671L0.099,-0.671L0.099,-0.75Z" style="fill-rule:nonzero;"/>
        </g>
        <g transform="matrix(128,0,0,128,2953.88,399.484)">
            <path d="M0.432,-0C0.429,-0.007 0.426,-0.015 0.424,-0.026C0.421,-0.036 0.42,-0.047 0.419,-0.058C0.41,-0.049 0.4,-0.04 0.388,-0.032C0.377,-0.024 0.365,-0.016 0.351,-0.01C0.338,-0.004 0.323,0.001 0.308,0.004C0.293,0.008 0.277,0.01 0.259,0.01C0.231,0.01 0.206,0.006 0.183,-0.002C0.161,-0.011 0.142,-0.022 0.126,-0.035C0.11,-0.049 0.098,-0.066 0.089,-0.085C0.08,-0.104 0.076,-0.124 0.076,-0.146C0.076,-0.175 0.082,-0.201 0.094,-0.223C0.105,-0.244 0.121,-0.263 0.143,-0.277C0.164,-0.292 0.189,-0.302 0.219,-0.31C0.249,-0.317 0.282,-0.32 0.319,-0.32L0.417,-0.32L0.417,-0.362C0.417,-0.378 0.415,-0.392 0.409,-0.405C0.403,-0.417 0.395,-0.428 0.384,-0.437C0.373,-0.446 0.36,-0.453 0.344,-0.458C0.329,-0.463 0.312,-0.465 0.292,-0.465C0.275,-0.465 0.259,-0.463 0.244,-0.458C0.23,-0.454 0.218,-0.448 0.208,-0.44C0.199,-0.433 0.191,-0.424 0.186,-0.414C0.18,-0.404 0.178,-0.393 0.178,-0.382L0.087,-0.382C0.087,-0.401 0.092,-0.42 0.102,-0.438C0.111,-0.457 0.125,-0.474 0.143,-0.489C0.161,-0.503 0.183,-0.515 0.209,-0.524C0.235,-0.534 0.264,-0.538 0.297,-0.538C0.327,-0.538 0.355,-0.534 0.381,-0.527C0.407,-0.52 0.429,-0.509 0.448,-0.494C0.466,-0.479 0.481,-0.461 0.492,-0.438C0.502,-0.416 0.508,-0.39 0.508,-0.361L0.508,-0.115C0.508,-0.098 0.509,-0.079 0.513,-0.059C0.516,-0.04 0.521,-0.022 0.526,-0.008L0.526,-0L0.432,-0ZM0.272,-0.069C0.29,-0.069 0.306,-0.071 0.322,-0.076C0.337,-0.08 0.351,-0.086 0.364,-0.094C0.376,-0.101 0.387,-0.11 0.396,-0.119C0.405,-0.129 0.412,-0.139 0.417,-0.149L0.417,-0.256L0.333,-0.256C0.281,-0.256 0.24,-0.249 0.21,-0.233C0.181,-0.217 0.167,-0.193 0.167,-0.159C0.167,-0.146 0.169,-0.134 0.173,-0.123C0.177,-0.112 0.184,-0.102 0.193,-0.094C0.202,-0.087 0.213,-0.08 0.226,-0.076C0.239,-0.071 0.255,-0.069 0.272,-0.069Z" style="fill-rule:nonzero;"/>
        </g>
        <g transform="matrix(128,0,0,128,3030.69,399.484)">
            <path d="M0.431,-0.538C0.44,-0.538 0.448,-0.538 0.458,-0.537C0.467,-0.537 0.475,-0.536 0.484,-0.535C0.492,-0.534 0.5,-0.532 0.507,-0.531C0.514,-0.529 0.519,-0.527 0.524,-0.525L0.512,-0.437C0.494,-0.441 0.477,-0.444 0.462,-0.446C0.446,-0.447 0.429,-0.448 0.412,-0.448C0.37,-0.448 0.336,-0.439 0.309,-0.419C0.283,-0.4 0.264,-0.373 0.251,-0.339L0.251,-0L0.161,-0L0.161,-0.528L0.247,-0.528L0.251,-0.444C0.272,-0.473 0.298,-0.496 0.328,-0.513C0.358,-0.53 0.393,-0.538 0.431,-0.538Z" style="fill-rule:nonzero;"/>
        </g>
        <g transform="matrix(128,0,0,128,3107.5,399.484)">
            <path d="M0.432,-0C0.429,-0.007 0.426,-0.015 0.424,-0.026C0.421,-0.036 0.42,-0.047 0.419,-0.058C0.41,-0.049 0.4,-0.04 0.388,-0.032C0.377,-0.024 0.365,-0.016 0.351,-0.01C0.338,-0.004 0.323,0.001 0.308,0.004C0.293,0.008 0.277,0.01 0.259,0.01C0.231,0.01 0.206,0.006 0.183,-0.002C0.161,-0.011 0.142,-0.022 0.126,-0.035C0.11,-0.049 0.098,-0.066 0.089,-0.085C0.08,-0.104 0.076,-0.124 0.076,-0.146C0.076,-0.175 0.082,-0.201 0.094,-0.223C0.105,-0.244 0.121,-0.263 0.143,-0.277C0.164,-0.292 0.189,-0.302 0.219,-0.31C0.249,-0.317 0.282,-0.32 0.319,-0.32L0.417,-0.32L0.417,-0.362C0.417,-0.378 0.415,-0.392 0.409,-0.405C0.403,-0.417 0.395,-0.428 0.384,-0.437C0.373,-0.446 0.36,-0.453 0.344,-0.458C0.329,-0.463 0.312,-0.465 0.292,-0.465C0.275,-0.465 0.259,-0.463 0.244,-0.458C0.23,-0.454 0.218,-0.448 0.208,-0.44C0.199,-0.433 0.191,-0.424 0.186,-0.414C0.18,-0.404 0.178,-0.393 0.178,-0.382L0.087,-0.382C0.087,-0.401 0.092,-0.42 0.102,-0.438C0.111,-0.457 0.125,-0.474 0.143,-0.489C0.161,-0.503 0.183,-0.515 0.209,-0.524C0.235,-0.534 0.264,-0.538 0.297,-0.538C0.327,-0.538 0.355,-0.534 0.381,-0.527C0.407,-0.52 0.429,-0.509 0.448,-0.494C0.466,-0.479 0.481,-0.461 0.492,-0.438C0.502,-0.416 0.508,-0.39 0.508,-0.361L0.508,-0.115C0.508,-0.098 0.509,-0.079 0.513,-0.059C0.516,-0.04 0.521,-0.022 0.526,-0.008L0.526,-0L0.432,-0ZM0.272,-0.069C0.29,-0.069 0.306,-0.071 0.322,-0.076C0.337,-0.08 0.351,-0.086 0.364,-0.094C0.376,-0.101 0.387,-0.11 0.396,-0.119C0.405,-0.129 0.412,-0.139 0.417,-0.149L0.417,-0.256L0.333,-0.256C0.281,-0.256 0.24,-0.249 0.21,-0.233C0.181,-0.217 0.167,-0.193 0.167,-0.159C0.167,-0.146 0.169,-0.134 0.173,-0.123C0.177,-0.112 0.184,-0.102 0.193,-0.094C0.202,-0.087 0.213,-0.08 0.226,-0.076C0.239,-0.071 0.255,-0.069 0.272,-0.069Z" style="fill-rule:nonzero;"/>
        </g>
        <g transform="matrix(128,0,0,128,3184.32,399.484)">
            <path d="M0.292,-0.13L0.3,-0.097L0.309,-0.13L0.457,-0.528L0.549,-0.528L0.334,-0L0.265,-0L0.048,-0.528L0.141,-0.528L0.292,-0.13Z" style="fill-rule:nonzero;"/>
        </g>
        <g transform="matrix(128,0,0,128,3261.13,399.484)">
            <path d="M0.318,0.01C0.281,0.01 0.247,0.003 0.216,-0.009C0.185,-0.022 0.158,-0.04 0.136,-0.063C0.114,-0.085 0.097,-0.112 0.084,-0.144C0.072,-0.175 0.066,-0.209 0.066,-0.246L0.066,-0.266C0.066,-0.309 0.073,-0.347 0.086,-0.381C0.1,-0.414 0.118,-0.443 0.141,-0.466C0.163,-0.489 0.189,-0.507 0.218,-0.52C0.247,-0.532 0.276,-0.538 0.307,-0.538C0.345,-0.538 0.378,-0.531 0.406,-0.518C0.435,-0.505 0.459,-0.487 0.478,-0.464C0.496,-0.44 0.51,-0.413 0.52,-0.381C0.529,-0.35 0.534,-0.316 0.534,-0.279L0.534,-0.238L0.156,-0.238C0.157,-0.214 0.162,-0.192 0.17,-0.17C0.178,-0.149 0.19,-0.131 0.204,-0.115C0.219,-0.099 0.236,-0.087 0.256,-0.078C0.277,-0.069 0.299,-0.064 0.323,-0.064C0.355,-0.064 0.384,-0.07 0.409,-0.083C0.434,-0.097 0.455,-0.114 0.472,-0.135L0.527,-0.092C0.518,-0.079 0.507,-0.066 0.494,-0.054C0.481,-0.042 0.465,-0.031 0.448,-0.021C0.431,-0.012 0.411,-0.004 0.39,0.001C0.368,0.007 0.344,0.01 0.318,0.01ZM0.307,-0.464C0.288,-0.464 0.271,-0.461 0.255,-0.454C0.239,-0.447 0.224,-0.437 0.211,-0.425C0.198,-0.412 0.187,-0.396 0.178,-0.377C0.169,-0.358 0.163,-0.337 0.159,-0.313L0.443,-0.313L0.443,-0.319C0.442,-0.337 0.439,-0.354 0.433,-0.372C0.428,-0.389 0.419,-0.404 0.408,-0.418C0.397,-0.432 0.383,-0.443 0.366,-0.451C0.35,-0.46 0.33,-0.464 0.307,-0.464Z" style="fill-rule:nonzero;"/>
        </g>
        <g transform="matrix(128,0,0,128,3337.94,399.484)">
            <path d="M0.099,-0.75L0.369,-0.75L0.369,-0.078L0.542,-0.078L0.542,-0L0.099,-0L0.099,-0.078L0.279,-0.078L0.279,-0.671L0.099,-0.671L0.099,-0.75Z" style="fill-rule:nonzero;"/>
        </g>
        <g transform="matrix(128,0,0,128,3414.75,399.484)">
            <rect x="0.106" y="-0.348" width="0.374" height="0.074" style="fill-rule:nonzero;"/>
        </g>
        <g transform="matrix(128,0,0,128,3491.63,399.484)">
            <path d="M0.436,-0.14C0.436,-0.151 0.434,-0.161 0.43,-0.169C0.425,-0.178 0.418,-0.186 0.408,-0.193C0.398,-0.2 0.385,-0.207 0.368,-0.213C0.352,-0.219 0.331,-0.224 0.306,-0.229C0.276,-0.235 0.248,-0.243 0.223,-0.251C0.198,-0.26 0.177,-0.271 0.159,-0.283C0.142,-0.295 0.128,-0.309 0.118,-0.326C0.108,-0.342 0.104,-0.361 0.104,-0.383C0.104,-0.405 0.109,-0.425 0.119,-0.444C0.129,-0.462 0.143,-0.479 0.161,-0.493C0.179,-0.507 0.201,-0.518 0.226,-0.526C0.252,-0.534 0.279,-0.538 0.31,-0.538C0.342,-0.538 0.371,-0.534 0.397,-0.525C0.424,-0.517 0.446,-0.505 0.464,-0.49C0.482,-0.475 0.496,-0.458 0.506,-0.438C0.516,-0.418 0.521,-0.396 0.521,-0.373L0.431,-0.373C0.431,-0.384 0.428,-0.396 0.422,-0.406C0.416,-0.417 0.408,-0.427 0.397,-0.436C0.387,-0.444 0.374,-0.451 0.36,-0.456C0.345,-0.461 0.328,-0.464 0.31,-0.464C0.29,-0.464 0.274,-0.462 0.259,-0.458C0.245,-0.453 0.233,-0.448 0.223,-0.44C0.213,-0.433 0.206,-0.425 0.201,-0.416C0.196,-0.406 0.194,-0.396 0.194,-0.386C0.194,-0.376 0.196,-0.367 0.2,-0.358C0.204,-0.35 0.21,-0.343 0.22,-0.336C0.23,-0.33 0.242,-0.324 0.259,-0.319C0.275,-0.314 0.295,-0.309 0.32,-0.304C0.352,-0.297 0.382,-0.289 0.407,-0.28C0.433,-0.271 0.455,-0.26 0.472,-0.248C0.49,-0.235 0.503,-0.221 0.512,-0.204C0.522,-0.188 0.526,-0.168 0.526,-0.146C0.526,-0.123 0.521,-0.102 0.51,-0.083C0.5,-0.063 0.485,-0.047 0.466,-0.033C0.447,-0.02 0.425,-0.009 0.398,-0.001C0.372,0.006 0.343,0.01 0.312,0.01C0.276,0.01 0.244,0.005 0.216,-0.005C0.188,-0.014 0.165,-0.027 0.145,-0.043C0.126,-0.059 0.111,-0.077 0.101,-0.098C0.091,-0.118 0.085,-0.14 0.085,-0.163L0.176,-0.163C0.177,-0.144 0.182,-0.128 0.191,-0.116C0.199,-0.103 0.21,-0.093 0.223,-0.085C0.236,-0.077 0.25,-0.072 0.266,-0.068C0.281,-0.065 0.297,-0.063 0.312,-0.063C0.35,-0.063 0.38,-0.07 0.402,-0.084C0.424,-0.098 0.436,-0.117 0.436,-0.14Z" style="fill-rule:nonzero;"/>
        </g>
        <g transform="matrix(128,0,0,128,3568.44,399.484)">
            <path d="M0.175,-0.45C0.194,-0.477 0.217,-0.499 0.245,-0.514C0.273,-0.53 0.304,-0.538 0.338,-0.538C0.366,-0.538 0.391,-0.534 0.414,-0.526C0.436,-0.518 0.456,-0.506 0.472,-0.489C0.488,-0.472 0.5,-0.45 0.509,-0.425C0.517,-0.399 0.521,-0.368 0.521,-0.333L0.521,-0L0.431,-0L0.431,-0.333C0.431,-0.377 0.421,-0.409 0.4,-0.43C0.379,-0.451 0.35,-0.462 0.312,-0.461C0.283,-0.461 0.256,-0.454 0.233,-0.44C0.209,-0.426 0.19,-0.407 0.175,-0.384L0.175,-0L0.085,-0L0.085,-0.75L0.175,-0.75L0.175,-0.45Z" style="fill-rule:nonzero;"/>
        </g>
        <g transform="matrix(128,0,0,128,3645.25,399.484)">
            <path d="M0.06,-0.269C0.06,-0.307 0.065,-0.343 0.076,-0.375C0.087,-0.408 0.103,-0.436 0.124,-0.46C0.144,-0.485 0.17,-0.503 0.199,-0.517C0.229,-0.531 0.262,-0.538 0.299,-0.538C0.337,-0.538 0.37,-0.531 0.4,-0.517C0.43,-0.503 0.455,-0.485 0.476,-0.46C0.497,-0.436 0.512,-0.408 0.523,-0.375C0.535,-0.343 0.54,-0.307 0.54,-0.269L0.54,-0.258C0.54,-0.22 0.535,-0.185 0.523,-0.152C0.512,-0.12 0.497,-0.091 0.476,-0.067C0.455,-0.043 0.43,-0.024 0.4,-0.011C0.371,0.003 0.337,0.01 0.3,0.01C0.263,0.01 0.229,0.003 0.199,-0.011C0.17,-0.024 0.144,-0.043 0.124,-0.067C0.103,-0.091 0.087,-0.12 0.076,-0.152C0.065,-0.185 0.06,-0.22 0.06,-0.258L0.06,-0.269ZM0.15,-0.258C0.15,-0.232 0.153,-0.207 0.159,-0.184C0.165,-0.16 0.175,-0.139 0.187,-0.122C0.2,-0.104 0.215,-0.09 0.234,-0.079C0.253,-0.069 0.275,-0.063 0.3,-0.063C0.325,-0.063 0.347,-0.069 0.365,-0.079C0.384,-0.09 0.4,-0.104 0.412,-0.122C0.425,-0.139 0.434,-0.16 0.44,-0.184C0.447,-0.207 0.45,-0.232 0.45,-0.258L0.45,-0.269C0.45,-0.295 0.447,-0.319 0.44,-0.343C0.434,-0.367 0.424,-0.387 0.412,-0.405C0.399,-0.423 0.384,-0.437 0.365,-0.448C0.346,-0.459 0.324,-0.464 0.299,-0.464C0.274,-0.464 0.252,-0.459 0.234,-0.448C0.215,-0.437 0.2,-0.423 0.187,-0.405C0.175,-0.387 0.165,-0.367 0.159,-0.343C0.153,-0.319 0.15,-0.295 0.15,-0.269L0.15,-0.258Z" style="fill-rule:nonzero;"/>
        </g>
        <g transform="matrix(128,0,0,128,3722.07,399.484)">
            <path d="M0.431,-0.538C0.44,-0.538 0.448,-0.538 0.458,-0.537C0.467,-0.537 0.475,-0.536 0.484,-0.535C0.492,-0.534 0.5,-0.532 0.507,-0.531C0.514,-0.529 0.519,-0.527 0.524,-0.525L0.512,-0.437C0.494,-0.441 0.477,-0.444 0.462,-0.446C0.446,-0.447 0.429,-0.448 0.412,-0.448C0.37,-0.448 0.336,-0.439 0.309,-0.419C0.283,-0.4 0.264,-0.373 0.251,-0.339L0.251,-0L0.161,-0L0.161,-0.528L0.247,-0.528L0.251,-0.444C0.272,-0.473 0.298,-0.496 0.328,-0.513C0.358,-0.53 0.393,-0.538 0.431,-0.538Z" style="fill-rule:nonzero;"/>
        </g>
        <g transform="matrix(128,0,0,128,3798.88,399.484)">
            <path d="M0.299,-0.656L0.299,-0.528L0.5,-0.528L0.5,-0.458L0.299,-0.458L0.299,-0.171C0.299,-0.151 0.301,-0.134 0.307,-0.121C0.312,-0.107 0.319,-0.097 0.328,-0.089C0.337,-0.081 0.348,-0.075 0.36,-0.072C0.372,-0.069 0.384,-0.067 0.397,-0.067C0.407,-0.067 0.417,-0.067 0.428,-0.069C0.438,-0.07 0.448,-0.071 0.458,-0.073C0.468,-0.074 0.477,-0.076 0.486,-0.078C0.495,-0.08 0.502,-0.081 0.507,-0.083L0.52,-0.019C0.513,-0.014 0.503,-0.01 0.493,-0.007C0.482,-0.003 0.47,-0 0.458,0.002C0.445,0.005 0.431,0.007 0.417,0.008C0.403,0.009 0.389,0.01 0.375,0.01C0.352,0.01 0.33,0.006 0.309,-0C0.289,-0.007 0.271,-0.017 0.256,-0.032C0.241,-0.046 0.23,-0.065 0.221,-0.088C0.212,-0.111 0.208,-0.139 0.208,-0.171L0.208,-0.458L0.069,-0.458L0.069,-0.528L0.208,-0.528L0.208,-0.656L0.299,-0.656Z" style="fill-rule:nonzero;"/>
        </g>
        <g transform="matrix(128,0,0,128,3875.69,399.484)">
            <path d="M0.31,-0.063C0.326,-0.063 0.342,-0.066 0.358,-0.071C0.373,-0.076 0.387,-0.084 0.399,-0.093C0.411,-0.102 0.421,-0.113 0.428,-0.126C0.435,-0.138 0.439,-0.152 0.439,-0.167L0.525,-0.167C0.525,-0.143 0.518,-0.121 0.507,-0.099C0.495,-0.078 0.479,-0.059 0.459,-0.043C0.439,-0.027 0.416,-0.014 0.391,-0.005C0.365,0.005 0.338,0.01 0.31,0.01C0.27,0.01 0.235,0.003 0.205,-0.012C0.175,-0.026 0.15,-0.045 0.13,-0.07C0.11,-0.094 0.095,-0.122 0.085,-0.154C0.075,-0.185 0.07,-0.219 0.07,-0.254L0.07,-0.274C0.07,-0.309 0.075,-0.343 0.085,-0.375C0.095,-0.406 0.11,-0.434 0.13,-0.459C0.15,-0.483 0.175,-0.502 0.205,-0.517C0.235,-0.531 0.27,-0.538 0.31,-0.538C0.341,-0.538 0.37,-0.533 0.396,-0.523C0.422,-0.513 0.445,-0.5 0.464,-0.483C0.483,-0.466 0.498,-0.445 0.509,-0.422C0.52,-0.398 0.525,-0.373 0.525,-0.347L0.439,-0.347C0.439,-0.363 0.436,-0.378 0.429,-0.392C0.422,-0.406 0.413,-0.418 0.402,-0.429C0.39,-0.44 0.377,-0.448 0.361,-0.455C0.345,-0.461 0.328,-0.464 0.31,-0.464C0.282,-0.464 0.259,-0.458 0.24,-0.447C0.22,-0.436 0.205,-0.421 0.193,-0.403C0.182,-0.385 0.173,-0.365 0.168,-0.342C0.163,-0.32 0.161,-0.297 0.161,-0.274L0.161,-0.254C0.161,-0.231 0.163,-0.208 0.168,-0.185C0.173,-0.163 0.182,-0.142 0.193,-0.124C0.205,-0.106 0.22,-0.092 0.239,-0.08C0.258,-0.069 0.282,-0.063 0.31,-0.063Z" style="fill-rule:nonzero;"/>
        </g>
        <g transform="matrix(128,0,0,128,3952.5,399.484)">
            <path d="M0.06,-0.269C0.06,-0.307 0.065,-0.343 0.076,-0.375C0.087,-0.408 0.103,-0.436 0.124,-0.46C0.144,-0.485 0.17,-0.503 0.199,-0.517C0.229,-0.531 0.262,-0.538 0.299,-0.538C0.337,-0.538 0.37,-0.531 0.4,-0.517C0.43,-0.503 0.455,-0.485 0.476,-0.46C0.497,-0.436 0.512,-0.408 0.523,-0.375C0.535,-0.343 0.54,-0.307 0.54,-0.269L0.54,-0.258C0.54,-0.22 0.535,-0.185 0.523,-0.152C0.512,-0.12 0.497,-0.091 0.476,-0.067C0.455,-0.043 0.43,-0.024 0.4,-0.011C0.371,0.003 0.337,0.01 0.3,0.01C0.263,0.01 0.229,0.003 0.199,-0.011C0.17,-0.024 0.144,-0.043 0.124,-0.067C0.103,-0.091 0.087,-0.12 0.076,-0.152C0.065,-0.185 0.06,-0.22 0.06,-0.258L0.06,-0.269ZM0.15,-0.258C0.15,-0.232 0.153,-0.207 0.159,-0.184C0.165,-0.16 0.175,-0.139 0.187,-0.122C0.2,-0.104 0.215,-0.09 0.234,-0.079C0.253,-0.069 0.275,-0.063 0.3,-0.063C0.325,-0.063 0.347,-0.069 0.365,-0.079C0.384,-0.09 0.4,-0.104 0.412,-0.122C0.425,-0.139 0.434,-0.16 0.44,-0.184C0.447,-0.207 0.45,-0.232 0.45,-0.258L0.45,-0.269C0.45,-0.295 0.447,-0.319 0.44,-0.343C0.434,-0.367 0.424,-0.387 0.412,-0.405C0.399,-0.423 0.384,-0.437 0.365,-0.448C0.346,-0.459 0.324,-0.464 0.299,-0.464C0.274,-0.464 0.252,-0.459 0.234,-0.448C0.215,-0.437 0.2,-0.423 0.187,-0.405C0.175,-0.387 0.165,-0.367 0.159,-0.343C0.153,-0.319 0.15,-0.295 0.15,-0.269L0.15,-0.258Z" style="fill-rule:nonzero;"/>
        </g>
        <g transform="matrix(128,0,0,128,4029.32,399.484)">
            <path d="M0.068,-0.269C0.068,-0.308 0.073,-0.344 0.083,-0.377C0.093,-0.41 0.107,-0.439 0.125,-0.462C0.144,-0.486 0.166,-0.505 0.192,-0.518C0.218,-0.531 0.247,-0.538 0.279,-0.538C0.311,-0.538 0.338,-0.533 0.362,-0.522C0.386,-0.512 0.406,-0.496 0.423,-0.476L0.423,-0.75L0.514,-0.75L0.514,-0L0.431,-0L0.427,-0.056C0.409,-0.034 0.388,-0.018 0.364,-0.007C0.339,0.004 0.311,0.01 0.278,0.01C0.246,0.01 0.218,0.003 0.192,-0.011C0.166,-0.024 0.144,-0.043 0.125,-0.067C0.107,-0.091 0.093,-0.12 0.083,-0.153C0.073,-0.185 0.068,-0.221 0.068,-0.258L0.068,-0.269ZM0.158,-0.258C0.158,-0.233 0.161,-0.208 0.167,-0.185C0.172,-0.162 0.181,-0.142 0.192,-0.124C0.204,-0.106 0.218,-0.093 0.236,-0.082C0.254,-0.072 0.276,-0.067 0.301,-0.067C0.316,-0.067 0.33,-0.069 0.342,-0.072C0.355,-0.076 0.366,-0.081 0.376,-0.088C0.386,-0.094 0.395,-0.102 0.403,-0.112C0.411,-0.121 0.417,-0.131 0.423,-0.143L0.423,-0.388C0.412,-0.409 0.396,-0.427 0.376,-0.441C0.356,-0.455 0.331,-0.461 0.302,-0.461C0.276,-0.461 0.255,-0.456 0.237,-0.446C0.219,-0.435 0.204,-0.421 0.192,-0.404C0.181,-0.386 0.172,-0.365 0.167,-0.342C0.161,-0.319 0.158,-0.294 0.158,-0.269L0.158,-0.258Z" style="fill-rule:nonzero;"/>
        </g>
        <g transform="matrix(128,0,0,128,4106.13,399.484)">
            <path d="M0.318,0.01C0.281,0.01 0.247,0.003 0.216,-0.009C0.185,-0.022 0.158,-0.04 0.136,-0.063C0.114,-0.085 0.097,-0.112 0.084,-0.144C0.072,-0.175 0.066,-0.209 0.066,-0.246L0.066,-0.266C0.066,-0.309 0.073,-0.347 0.086,-0.381C0.1,-0.414 0.118,-0.443 0.141,-0.466C0.163,-0.489 0.189,-0.507 0.218,-0.52C0.247,-0.532 0.276,-0.538 0.307,-0.538C0.345,-0.538 0.378,-0.531 0.406,-0.518C0.435,-0.505 0.459,-0.487 0.478,-0.464C0.496,-0.44 0.51,-0.413 0.52,-0.381C0.529,-0.35 0.534,-0.316 0.534,-0.279L0.534,-0.238L0.156,-0.238C0.157,-0.214 0.162,-0.192 0.17,-0.17C0.178,-0.149 0.19,-0.131 0.204,-0.115C0.219,-0.099 0.236,-0.087 0.256,-0.078C0.277,-0.069 0.299,-0.064 0.323,-0.064C0.355,-0.064 0.384,-0.07 0.409,-0.083C0.434,-0.097 0.455,-0.114 0.472,-0.135L0.527,-0.092C0.518,-0.079 0.507,-0.066 0.494,-0.054C0.481,-0.042 0.465,-0.031 0.448,-0.021C0.431,-0.012 0.411,-0.004 0.39,0.001C0.368,0.007 0.344,0.01 0.318,0.01ZM0.307,-0.464C0.288,-0.464 0.271,-0.461 0.255,-0.454C0.239,-0.447 0.224,-0.437 0.211,-0.425C0.198,-0.412 0.187,-0.396 0.178,-0.377C0.169,-0.358 0.163,-0.337 0.159,-0.313L0.443,-0.313L0.443,-0.319C0.442,-0.337 0.439,-0.354 0.433,-0.372C0.428,-0.389 0.419,-0.404 0.408,-0.418C0.397,-0.432 0.383,-0.443 0.366,-0.451C0.35,-0.46 0.33,-0.464 0.307,-0.464Z" style="fill-rule:nonzero;"/>
        </g>
        <g transform="matrix(128,0,0,128,4182.94,399.484)">
            <rect x="0.106" y="-0.348" width="0.374" height="0.074" style="fill-rule:nonzero;"/>
        </g>
        <g transform="matrix(128,0,0,128,4259.82,399.484)">
            <path d="M0.531,-0.258C0.531,-0.221 0.526,-0.185 0.517,-0.153C0.508,-0.12 0.495,-0.091 0.477,-0.067C0.459,-0.043 0.438,-0.024 0.412,-0.011C0.386,0.003 0.356,0.01 0.323,0.01C0.291,0.01 0.263,0.005 0.238,-0.006C0.213,-0.016 0.192,-0.031 0.175,-0.051L0.175,0.203L0.084,0.203L0.084,-0.528L0.167,-0.528L0.171,-0.471C0.189,-0.493 0.21,-0.509 0.235,-0.521C0.26,-0.532 0.289,-0.538 0.322,-0.538C0.356,-0.538 0.386,-0.531 0.412,-0.518C0.438,-0.505 0.459,-0.486 0.477,-0.462C0.495,-0.439 0.508,-0.41 0.517,-0.377C0.526,-0.344 0.531,-0.308 0.531,-0.269L0.531,-0.258ZM0.44,-0.269C0.44,-0.294 0.438,-0.319 0.432,-0.342C0.426,-0.365 0.417,-0.386 0.406,-0.404C0.394,-0.421 0.379,-0.435 0.36,-0.446C0.342,-0.456 0.32,-0.461 0.295,-0.461C0.266,-0.461 0.242,-0.455 0.222,-0.441C0.202,-0.428 0.187,-0.41 0.175,-0.389L0.175,-0.135C0.187,-0.114 0.202,-0.097 0.222,-0.084C0.241,-0.071 0.266,-0.064 0.296,-0.064C0.321,-0.064 0.343,-0.069 0.361,-0.08C0.379,-0.09 0.394,-0.105 0.406,-0.123C0.417,-0.14 0.426,-0.161 0.432,-0.185C0.438,-0.208 0.44,-0.233 0.44,-0.258L0.44,-0.269Z" style="fill-rule:nonzero;"/>
        </g>
        <g transform="matrix(128,0,0,128,4336.63,399.484)">
            <path d="M0.099,-0.75L0.369,-0.75L0.369,-0.078L0.542,-0.078L0.542,-0L0.099,-0L0.099,-0.078L0.279,-0.078L0.279,-0.671L0.099,-0.671L0.099,-0.75Z" style="fill-rule:nonzero;"/>
        </g>
        <g transform="matrix(128,0,0,128,4413.44,399.484)">
            <path d="M0.428,-0.073C0.41,-0.047 0.388,-0.026 0.362,-0.012C0.335,0.003 0.305,0.01 0.271,0.01C0.243,0.01 0.218,0.005 0.195,-0.003C0.173,-0.012 0.154,-0.025 0.138,-0.043C0.122,-0.062 0.109,-0.085 0.101,-0.113C0.092,-0.141 0.088,-0.175 0.088,-0.214L0.088,-0.528L0.178,-0.528L0.178,-0.213C0.178,-0.185 0.181,-0.161 0.185,-0.142C0.19,-0.123 0.196,-0.108 0.206,-0.097C0.215,-0.086 0.226,-0.078 0.239,-0.073C0.252,-0.069 0.267,-0.066 0.285,-0.066C0.321,-0.066 0.351,-0.074 0.374,-0.089C0.396,-0.104 0.413,-0.124 0.424,-0.149L0.424,-0.528L0.515,-0.528L0.515,-0L0.433,-0L0.428,-0.073Z" style="fill-rule:nonzero;"/>
        </g>
        <g transform="matrix(128,0,0,128,4490.25,399.484)">
            <path d="M0.436,-0.14C0.436,-0.151 0.434,-0.161 0.43,-0.169C0.425,-0.178 0.418,-0.186 0.408,-0.193C0.398,-0.2 0.385,-0.207 0.368,-0.213C0.352,-0.219 0.331,-0.224 0.306,-0.229C0.276,-0.235 0.248,-0.243 0.223,-0.251C0.198,-0.26 0.177,-0.271 0.159,-0.283C0.142,-0.295 0.128,-0.309 0.118,-0.326C0.108,-0.342 0.104,-0.361 0.104,-0.383C0.104,-0.405 0.109,-0.425 0.119,-0.444C0.129,-0.462 0.143,-0.479 0.161,-0.493C0.179,-0.507 0.201,-0.518 0.226,-0.526C0.252,-0.534 0.279,-0.538 0.31,-0.538C0.342,-0.538 0.371,-0.534 0.397,-0.525C0.424,-0.517 0.446,-0.505 0.464,-0.49C0.482,-0.475 0.496,-0.458 0.506,-0.438C0.516,-0.418 0.521,-0.396 0.521,-0.373L0.431,-0.373C0.431,-0.384 0.428,-0.396 0.422,-0.406C0.416,-0.417 0.408,-0.427 0.397,-0.436C0.387,-0.444 0.374,-0.451 0.36,-0.456C0.345,-0.461 0.328,-0.464 0.31,-0.464C0.29,-0.464 0.274,-0.462 0.259,-0.458C0.245,-0.453 0.233,-0.448 0.223,-0.44C0.213,-0.433 0.206,-0.425 0.201,-0.416C0.196,-0.406 0.194,-0.396 0.194,-0.386C0.194,-0.376 0.196,-0.367 0.2,-0.358C0.204,-0.35 0.21,-0.343 0.22,-0.336C0.23,-0.33 0.242,-0.324 0.259,-0.319C0.275,-0.314 0.295,-0.309 0.32,-0.304C0.352,-0.297 0.382,-0.289 0.407,-0.28C0.433,-0.271 0.455,-0.26 0.472,-0.248C0.49,-0.235 0.503,-0.221 0.512,-0.204C0.522,-0.188 0.526,-0.168 0.526,-0.146C0.526,-0.123 0.521,-0.102 0.51,-0.083C0.5,-0.063 0.485,-0.047 0.466,-0.033C0.447,-0.02 0.425,-0.009 0.398,-0.001C0.372,0.006 0.343,0.01 0.312,0.01C0.276,0.01 0.244,0.005 0.216,-0.005C0.188,-0.014 0.165,-0.027 0.145,-0.043C0.126,-0.059 0.111,-0.077 0.101,-0.098C0.091,-0.118 0.085,-0.14 0.085,-0.163L0.176,-0.163C0.177,-0.144 0.182,-0.128 0.191,-0.116C0.199,-0.103 0.21,-0.093 0.223,-0.085C0.236,-0.077 0.25,-0.072 0.266,-0.068C0.281,-0.065 0.297,-0.063 0.312,-0.063C0.35,-0.063 0.38,-0.07 0.402,-0.084C0.424,-0.098 0.436,-0.117 0.436,-0.14Z" style="fill-rule:nonzero;"/>
        </g>
    </g>
    <g transform="matrix(1,0,0,1,31.2642,-61.4863)">
        <rect x="141.238" y="946.906" width="12.693" height="59.897"/>
    </g>
    <g transform="matrix(0.0974512,0,0,0.0974512,1765.22,980.21)">
        <g transform="matrix(1,0,0,1,-1024,-1024)">
            <g transform="matrix(9.73106,0,0,9.73106,-12878.8,-14974.7)">
                <g transform="matrix(0.102764,0,0,0.102764,1323.47,1538.85)">
                    <rect x="0" y="0" width="2048" height="2048" style="fill:rgb(245,39,40);"/>
                </g>
                <g transform="matrix(5.57023,0,0,5.57023,-5666.38,-7987.45)">
                    <g transform="matrix(1,0,0,1,-95.9233,87.4111)">
                        <g id="_3" serif:id="3">
                            <path d="M1365.85,1639.93C1365.85,1642.03 1367.56,1643.74 1369.66,1643.74C1371.77,1643.74 1373.48,1642.03 1373.48,1639.93L1377.29,1639.93C1377.29,1644.14 1373.87,1647.56 1369.66,1647.56C1365.45,1647.56 1362.03,1644.14 1362.03,1639.93L1365.85,1639.93ZM1377.02,1633.61L1377.02,1629.3L1362.65,1629.3L1362.65,1632.96L1372.11,1632.96L1367.87,1636.52L1370.23,1639.32L1377.02,1633.61Z" style="fill:white;"/>
                        </g>
                    </g>
                    <g transform="matrix(0.0177947,0,0,0.0177947,1248.14,1709.53)">
                        <g transform="matrix(438.265,0,0,438.265,984.983,1793.8)">
                            <rect x="0.056" y="-0.74" width="0.196" height="0.74" style="fill:white;fill-rule:nonzero;"/>
                        </g>
                        <g transform="matrix(438.265,0,0,438.265,1093.67,1793.8)">
                            <path d="M0.024,-0.281C0.024,-0.339 0.035,-0.39 0.056,-0.433C0.077,-0.476 0.105,-0.51 0.142,-0.533C0.178,-0.556 0.218,-0.568 0.263,-0.568C0.302,-0.568 0.335,-0.56 0.363,-0.545C0.391,-0.53 0.413,-0.509 0.428,-0.483L0.428,-0.561L0.624,-0.561L0.624,-0L0.428,-0L0.428,-0.078C0.413,-0.052 0.391,-0.031 0.363,-0.016C0.334,-0.001 0.301,0.007 0.263,0.007C0.218,0.007 0.178,-0.005 0.142,-0.028C0.105,-0.051 0.077,-0.085 0.056,-0.129C0.035,-0.172 0.024,-0.223 0.024,-0.281ZM0.428,-0.281C0.428,-0.317 0.418,-0.345 0.399,-0.366C0.379,-0.387 0.355,-0.397 0.326,-0.397C0.297,-0.397 0.272,-0.387 0.253,-0.367C0.234,-0.346 0.224,-0.318 0.224,-0.281C0.224,-0.245 0.234,-0.217 0.253,-0.196C0.272,-0.175 0.297,-0.164 0.326,-0.164C0.355,-0.164 0.379,-0.174 0.399,-0.195C0.418,-0.216 0.428,-0.244 0.428,-0.281Z" style="fill:white;fill-rule:nonzero;"/>
                        </g>
                        <g transform="matrix(438.265,0,0,438.265,1365.4,1793.8)">
                            <path d="M0.252,-0.483C0.267,-0.51 0.289,-0.531 0.317,-0.546C0.345,-0.561 0.378,-0.568 0.416,-0.568C0.461,-0.568 0.501,-0.556 0.538,-0.533C0.574,-0.51 0.603,-0.476 0.624,-0.433C0.645,-0.39 0.655,-0.339 0.655,-0.281C0.655,-0.223 0.645,-0.172 0.624,-0.129C0.603,-0.085 0.574,-0.051 0.538,-0.028C0.501,-0.005 0.461,0.007 0.416,0.007C0.378,0.007 0.345,-0 0.317,-0.016C0.289,-0.031 0.267,-0.051 0.252,-0.078L0.252,-0L0.056,-0L0.056,-0.74L0.252,-0.74L0.252,-0.483ZM0.456,-0.281C0.456,-0.318 0.446,-0.346 0.427,-0.367C0.407,-0.387 0.383,-0.397 0.354,-0.397C0.325,-0.397 0.301,-0.387 0.282,-0.366C0.262,-0.345 0.252,-0.317 0.252,-0.281C0.252,-0.244 0.262,-0.216 0.282,-0.195C0.301,-0.174 0.325,-0.164 0.354,-0.164C0.383,-0.164 0.407,-0.175 0.427,-0.196C0.446,-0.217 0.456,-0.245 0.456,-0.281Z" style="fill:white;fill-rule:nonzero;"/>
                        </g>
                        <g transform="matrix(438.265,0,0,438.265,1637.12,1793.8)">
                            <path d="M0.295,0.007C0.244,0.007 0.199,-0.001 0.16,-0.019C0.12,-0.035 0.089,-0.059 0.066,-0.089C0.043,-0.118 0.03,-0.152 0.027,-0.189L0.217,-0.189C0.22,-0.171 0.228,-0.157 0.242,-0.147C0.256,-0.137 0.273,-0.132 0.294,-0.132C0.31,-0.132 0.323,-0.135 0.332,-0.142C0.341,-0.149 0.346,-0.157 0.346,-0.168C0.346,-0.182 0.338,-0.192 0.323,-0.199C0.308,-0.206 0.282,-0.213 0.247,-0.221C0.207,-0.229 0.174,-0.238 0.147,-0.248C0.12,-0.258 0.097,-0.274 0.078,-0.297C0.058,-0.32 0.048,-0.35 0.048,-0.389C0.048,-0.422 0.057,-0.452 0.075,-0.48C0.093,-0.507 0.12,-0.528 0.155,-0.544C0.19,-0.56 0.232,-0.568 0.281,-0.568C0.354,-0.568 0.412,-0.55 0.454,-0.514C0.496,-0.478 0.52,-0.431 0.527,-0.372L0.35,-0.372C0.347,-0.39 0.339,-0.404 0.327,-0.414C0.314,-0.423 0.298,-0.428 0.277,-0.428C0.261,-0.428 0.249,-0.425 0.241,-0.419C0.232,-0.413 0.228,-0.405 0.228,-0.394C0.228,-0.381 0.236,-0.371 0.251,-0.364C0.266,-0.357 0.291,-0.349 0.325,-0.342C0.366,-0.333 0.4,-0.324 0.427,-0.313C0.454,-0.302 0.477,-0.285 0.498,-0.262C0.518,-0.238 0.528,-0.206 0.528,-0.165C0.528,-0.132 0.519,-0.103 0.5,-0.077C0.481,-0.051 0.454,-0.031 0.419,-0.016C0.384,-0 0.342,0.007 0.295,0.007Z" style="fill:white;fill-rule:nonzero;"/>
                        </g>
                    </g>
                </g>
            </g>
        </g>
    </g>
</svg>
